<svg width="11" height="7" viewBox="0 0 11 7" fill="none" xmlns="http://www.w3.org/2000/svg">
<path d="M5.07078 6.27796L0.17573 1.82784C0.0624222 1.72491 -4.4802e-08 1.58751 -3.83982e-08 1.44101C-3.19943e-08 1.29451 0.0624222 1.15711 0.17573 1.05418L0.536134 0.726462C0.770977 0.513212 1.15267 0.513212 1.38715 0.726462L5.49772 4.46334L9.61285 0.722316C9.72616 0.61939 9.8772 0.562561 10.0383 0.562561C10.1995 0.562561 10.3506 0.61939 10.464 0.722316L10.8243 1.05004C10.9376 1.15304 11 1.29036 11 1.43686C11 1.58337 10.9376 1.72076 10.8243 1.82369L5.92475 6.27796C5.81108 6.38113 5.65932 6.4378 5.49799 6.43747C5.33603 6.4378 5.18436 6.38113 5.07078 6.27796Z" fill="#6080FF"/>
</svg>
