<svg width="16" height="16" viewBox="0 0 16 16" fill="none" xmlns="http://www.w3.org/2000/svg">
<path fill-rule="evenodd" clip-rule="evenodd" d="M3.99998 4.00001V3.33334C3.99998 2.22878 4.89541 1.33334 5.99998 1.33334H12.6666C13.7712 1.33334 14.6666 2.22878 14.6666 3.33334V10C14.6666 11.1046 13.7712 12 12.6666 12H12V12.6667C12 13.7713 11.1046 14.6667 9.99998 14.6667H3.33331C2.22875 14.6667 1.33331 13.7713 1.33331 12.6667V6.00001C1.33331 4.89544 2.22875 4.00001 3.33331 4.00001H3.99998ZM5.33331 4.00001V3.33334C5.33331 2.96516 5.63179 2.66668 5.99998 2.66668H12.6666C13.0348 2.66668 13.3333 2.96516 13.3333 3.33334V10C13.3333 10.3682 13.0348 10.6667 12.6666 10.6667H12V6.00001C12 4.89544 11.1046 4.00001 9.99998 4.00001H5.33331Z" fill="#3F4860"/>
</svg>
