<svg width="192" height="114" viewBox="0 0 192 114" fill="none" xmlns="http://www.w3.org/2000/svg">
<path d="M153.763 90.3285C153.763 90.3285 154.173 91.6669 154.335 92.5998C154.417 93.0865 154.377 93.7356 154.335 94.2628C154.294 94.7901 154.294 95.074 154.377 95.1957C154.417 95.2768 154.539 95.3173 154.703 95.3173C155.03 95.2768 155.562 95.0334 155.847 94.8712C155.929 94.8306 156.011 94.8306 156.093 94.7901C156.461 94.7495 156.829 94.9523 156.869 94.9523C157.156 94.9523 157.442 94.9523 157.686 94.9523C158.422 94.8712 159.077 94.5873 159.731 94.1006C161.488 92.7621 161.979 90.5312 160.875 88.706C160.875 88.706 160.425 87.8136 161.079 86.5563C161.692 85.38 163.042 85.1772 163.082 85.1772H163.164L163.123 85.0961C163.123 85.0961 162.674 83.8793 163.614 82.5003C164.349 81.4457 165.78 81.2023 165.821 81.2023H165.902V81.1212C165.902 81.1212 165.698 79.661 166.474 78.6876C166.884 78.1602 167.537 77.8358 168.355 77.7546C168.436 77.7546 168.477 77.7546 168.559 77.7546C169.54 77.7952 170.807 78.4441 171.379 78.7282C171.543 78.8093 171.624 78.8497 171.624 78.8497C171.666 78.8497 171.666 78.8497 171.706 78.8497C171.828 78.8497 171.951 78.6876 171.951 78.6876C171.951 78.6876 172.238 78.2819 172.483 77.7546V77.7141C172.483 77.6735 172.483 77.633 172.319 77.3085L173.055 76.6189L172.974 76.335C173.259 76.0105 175.793 73.5364 180.535 71.9545C181.271 71.6706 182.088 71.4678 182.987 71.3867C186.91 70.981 191.284 72.4006 191.326 72.4006L191.57 72.4818L191.407 72.279C191.407 72.279 190.263 70.9404 188.219 69.6831C186.298 68.5474 183.191 67.2494 179.104 67.4929C178.736 67.5333 178.368 67.5333 178.001 67.574C173.259 68.0607 169.785 70.2915 169.295 70.616C169.213 70.4943 169.049 70.3321 168.968 70.3321H168.927C168.804 70.3321 168.273 70.6971 168.151 70.7782C168.151 70.7782 167.824 71.265 167.578 71.5489C167.414 71.7517 167.496 71.8734 167.537 71.9545C167.537 71.9545 167.537 71.9951 167.578 71.9951C167.578 72.0356 167.537 72.0356 167.537 72.0356C167.496 72.0356 167.496 72.0356 167.456 72.0356C167.414 72.0356 167.374 72.0356 167.333 72.0356C167.292 72.0356 167.21 72.0762 167.21 72.1167C167.169 72.2384 167.21 72.3195 167.252 72.3601C167.292 72.4006 167.292 72.4006 167.252 72.4412C167.252 72.4818 167.21 72.4818 167.21 72.4818C167.21 72.4818 167.169 72.4818 167.129 72.4412C167.088 72.4412 167.046 72.4006 167.006 72.4006C166.965 72.4006 166.924 72.4006 166.884 72.4818C166.801 72.6034 166.842 72.6845 166.884 72.7658C166.924 72.8062 166.924 72.8062 166.884 72.8468C166.884 72.8468 166.884 72.8468 166.842 72.8468C166.842 72.8468 166.801 72.8468 166.761 72.8468C166.72 72.8468 166.678 72.8062 166.638 72.8468C166.597 72.8468 166.557 72.8873 166.516 72.9279C166.434 73.0497 166.474 73.1308 166.516 73.1712C166.557 73.2119 166.557 73.2119 166.516 73.2525C166.516 73.2525 166.474 73.2525 166.474 73.2119C166.434 73.1712 166.393 73.1712 166.312 73.1712C166.27 73.1712 166.229 73.2119 166.189 73.2525C166.106 73.3336 166.148 73.4553 166.148 73.4958C166.189 73.5364 166.189 73.5364 166.148 73.5769C166.148 73.5769 166.148 73.5769 166.106 73.5769C166.106 73.5769 166.066 73.5769 166.025 73.5364C165.984 73.4958 165.944 73.4958 165.861 73.4958C165.821 73.4958 165.78 73.5364 165.74 73.5364C165.617 73.6581 165.698 73.7392 165.74 73.7797L165.78 73.8203C165.78 73.8203 165.78 73.8203 165.78 73.8608C165.74 73.8608 165.74 73.8608 165.74 73.8608C165.74 73.8608 165.698 73.8608 165.698 73.8203C165.657 73.7797 165.617 73.7392 165.534 73.7797C165.494 73.7797 165.453 73.8203 165.411 73.8203C165.289 73.9014 165.371 74.0231 165.371 74.0636L165.411 74.1042C165.411 74.1042 165.411 74.1042 165.371 74.1042C165.371 74.1042 165.33 74.1042 165.289 74.0636C165.249 74.0231 165.207 74.0231 165.126 74.0231C165.085 74.0231 165.043 74.0636 165.003 74.0636C164.922 74.1448 164.922 74.2664 164.962 74.3475C164.962 74.3881 164.962 74.3881 164.962 74.4287C164.962 74.4287 164.922 74.4287 164.922 74.3881C164.881 74.3475 164.799 74.307 164.717 74.307C164.677 74.307 164.635 74.307 164.594 74.3475C164.471 74.4287 164.513 74.5503 164.554 74.6316C164.554 74.672 164.594 74.672 164.554 74.672C164.513 74.672 164.513 74.672 164.471 74.6316C164.431 74.5909 164.39 74.5503 164.309 74.5909C164.267 74.5909 164.226 74.5909 164.186 74.6316C164.063 74.7127 164.105 74.8342 164.145 74.8748V74.9155C164.145 74.9155 164.105 74.8748 164.063 74.8748C164.022 74.8342 163.941 74.7937 163.859 74.7937C163.818 74.7937 163.777 74.7937 163.737 74.8342C163.654 74.9155 163.654 74.9966 163.695 75.0777C163.695 75.1183 163.695 75.1588 163.695 75.1588C163.695 75.1588 163.654 75.1588 163.614 75.1183C163.573 75.0777 163.491 75.0777 163.408 75.0777C163.369 75.0777 163.369 75.0777 163.327 75.1183C163.246 75.1588 163.246 75.2805 163.246 75.3616C163.246 75.4022 163.246 75.4427 163.246 75.4833C163.204 75.4833 163.123 75.4427 163.082 75.3616L163.042 75.321L163 75.3616C163 75.3616 161.079 77.268 159.976 78.6065C158.872 79.9449 156.542 83.3926 156.502 83.3926L156.461 83.4737L156.542 83.5142C156.542 83.5142 156.625 83.5548 156.665 83.6359C156.706 83.717 156.665 83.8387 156.584 84.0009C156.502 84.1632 156.42 84.2037 156.38 84.2037C156.338 84.2037 156.297 84.2037 156.257 84.2037C156.215 84.2037 156.174 84.2037 156.093 84.2037C156.011 84.2037 155.929 84.2443 155.889 84.3254C155.807 84.4876 155.889 84.6094 155.97 84.6905C156.051 84.7717 156.093 84.8528 156.011 85.015C155.889 85.2178 155.766 85.1772 155.643 85.2178C155.602 85.2178 155.602 85.2178 155.562 85.2178C155.479 85.2178 155.357 85.2584 155.317 85.38C155.234 85.5423 155.357 85.6234 155.439 85.7045C155.521 85.7856 155.602 85.8262 155.521 86.0291C155.439 86.2319 155.317 86.2319 155.194 86.2723C155.071 86.2723 154.949 86.313 154.867 86.4752C154.785 86.6374 154.907 86.7591 154.949 86.7997C155.03 86.8808 155.071 86.9214 154.99 87.1241C154.907 87.2864 154.826 87.3269 154.745 87.3269C154.703 87.3269 154.662 87.3269 154.662 87.3269C154.622 87.3269 154.581 87.3269 154.581 87.3269C154.499 87.3269 154.377 87.3675 154.335 87.4892C154.254 87.6514 154.377 87.7731 154.458 87.8542C154.539 87.9353 154.622 88.0164 154.539 88.1381C154.458 88.2599 154.377 88.3816 154.213 88.3816C154.131 88.3816 154.05 88.3816 154.05 88.3816H153.967L153.927 88.4221C153.844 88.6249 153.599 89.2738 153.599 89.3955C153.599 89.4766 153.682 89.5578 153.805 89.6794C153.844 89.72 153.927 89.7605 153.927 89.8011C153.844 89.9229 153.64 90.2472 153.64 90.2472L153.763 90.3285ZM156.38 88.8277C156.706 88.6249 157.074 88.5438 157.442 88.5032C158.464 88.3816 159.485 88.9088 159.976 89.7605C160.344 90.369 160.425 91.0585 160.261 91.748C160.099 92.4376 159.649 93.0054 159.036 93.3299C158.709 93.5327 158.341 93.6543 157.973 93.6949C156.952 93.8167 155.929 93.2893 155.439 92.4376C154.703 91.1396 155.111 89.5577 156.38 88.8277Z" fill="#1C2127"/>
<path d="M66.9495 6.20574L67.5626 6.65192L67.7669 8.11209L67.3582 8.63938L65.9685 7.58481L66.9495 6.20574ZM76.9223 15.1696C77.045 15.0074 77.2902 14.9668 77.4537 15.0885L80.9688 17.7249C81.1322 17.8466 81.1732 18.0899 81.0505 18.2523L80.8462 18.4955C80.7235 18.6579 80.4783 18.6984 80.3148 18.5766L76.7998 15.9403C76.6363 15.8186 76.5953 15.5752 76.718 15.413L76.9223 15.1696ZM104.103 41.1283L106.31 42.7509C106.351 42.9131 106.351 43.0752 106.392 43.197C106.392 43.8865 105.86 44.4543 105.165 44.4543C106.228 45.225 107.454 43.8865 107.454 43.8865L108.353 44.6165L107.168 46.239C106.759 46.6851 106.514 46.6447 106.269 46.4418L103.081 43.9271L102.999 43.8459C102.55 43.5215 102.55 42.832 102.958 42.4668L104.103 41.1283ZM63.8024 5.96238L62.8213 7.26032L81.1322 20.9698L80.601 21.6593C80.5192 21.7404 80.5192 21.7404 80.5192 21.7404C80.3148 22.065 80.3965 22.5517 80.7645 22.795L90.0426 29.7309C90.0426 29.7309 91.1052 32.1645 91.514 32.489C92.0862 32.8134 92.7401 32.854 93.3532 32.6918L97.2769 35.6527C91.3913 42.1424 82.7671 40.9255 82.7671 40.9255C82.5219 40.8851 82.3994 41.0472 82.3994 41.2094L82.3176 47.2125C82.3584 47.4558 82.4402 47.5775 82.6854 47.6181C92.4949 48.8755 100.465 42.1829 100.465 42.1829L101.61 43.0348C101.446 43.6026 101.609 44.211 102.059 44.6165L105.819 47.4153C106.269 47.8209 107.045 47.7803 107.454 47.3342C107.454 47.3342 106.637 53.5804 106.555 54.2294C106.473 54.7162 106.637 55.2434 107.045 55.5679L108.64 56.7442C111.419 58.7722 111.46 56.1764 111.46 56.1764L111.868 51.3091C112.114 48.5509 113.217 48.7944 113.217 48.7944L114.443 49.7272C114.443 49.7272 123.803 65.0591 125.602 68.0606C127.073 70.6564 128.054 69.3585 128.054 69.3585L133.449 62.2199C134.103 61.3681 133.04 60.3541 133.04 60.3541L122.373 50.1733C122.291 50.0922 122.291 50.0922 122.291 50.0922C121.841 49.6866 121.147 49.7272 120.738 50.1733L116.691 45.8334L116.16 42.1018C116.078 41.6557 115.792 41.2094 115.384 40.9662L114.689 40.4388L98.9935 28.798L99.6067 28.1085C99.7292 27.9461 99.6884 27.7029 99.5249 27.5811L96.9091 25.6342L96.3777 25.2286C96.2142 25.1069 95.969 25.0664 95.7237 25.0258H95.1925C94.9472 25.0664 94.702 24.9447 94.5385 24.823L93.9254 24.3769L84.8925 17.5627L83.7481 17.7249L78.3121 13.75C77.3312 13.0199 76.8815 12.6143 76.0231 12.9794C74.6335 13.6283 74.1022 13.7094 73.1213 12.9794L67.9713 9.12611L68.5026 8.43658L68.2574 6.20574L68.8705 5.43509C69.1158 5.07005 69.0748 4.62389 68.707 4.38052C68.3391 4.13715 67.8896 4.25884 67.6444 4.62389L65.519 7.34144L63.8024 5.96238Z" fill="#1C2127"/>
<path d="M158.137 61.8143C157.523 62.7472 156.951 63.4366 156.379 64.0046C154.784 65.5459 152.741 66.5193 150.534 66.8843C151.107 65.8298 151.637 64.6941 152.128 63.5584C154.131 58.975 155.152 54.3512 155.071 49.8083C155.03 47.9425 154.826 44.9411 154.376 42.7914L154.335 42.5481C154.05 41.169 153.763 39.8305 153.272 38.2486C157.401 29.0008 157.278 19.2257 152.741 10.0185L147.837 0L143.912 11.3975C143.872 11.4786 143.872 11.5192 143.831 11.6003L142.237 15.6969C139.662 21.7404 136.555 26.0399 132.427 29.3252C130.506 30.8665 128.463 32.2862 126.296 33.7464C122.005 36.7074 117.59 39.7493 113.83 44.0487C112.972 45.0222 112.195 45.9956 111.46 47.0503L63.8839 52.3231L11.4035 58.0827L0 108.459L34.006 104.727L34.6599 101.685L35.1096 99.6167L36.7854 101.442L39.156 104.16L60.6141 101.888L61.309 98.7244L61.7585 96.6558L63.4343 98.481L65.8867 101.32L86.8135 99.0894L87.5492 95.8041L87.9987 93.7355L89.6745 95.5607L92.2494 98.5216L115.506 96.0474L117.059 89.071C117.304 89.2332 117.55 89.3549 117.795 89.5171C120.125 90.8962 122.618 91.9101 125.234 92.5997C128.912 93.5731 132.673 93.8166 136.474 93.4109C136.596 93.4109 136.76 93.3703 136.882 93.3703C138.845 93.127 140.806 92.6809 142.645 92.0725C142.932 91.9914 143.177 91.8697 143.463 91.7886C143.544 91.748 143.627 91.7075 143.708 91.7075L143.789 91.6669C147.509 90.3284 150.37 88.787 153.027 86.6779C153.109 86.6374 153.191 86.5562 153.272 86.4751L153.313 86.4346C153.599 86.1912 153.886 85.9883 154.131 85.745C156.093 84.1225 157.85 82.338 159.444 80.3504C159.649 80.1072 159.853 79.8231 160.057 79.6204C160.548 78.9714 160.997 78.4035 161.365 77.8357C161.488 77.6329 161.611 77.4707 161.733 77.2679V77.2273C162.387 76.2132 163 75.0776 163.654 73.8608C164.267 72.6033 164.798 71.4272 165.207 70.2103C165.738 68.669 166.351 66.7221 166.638 64.1262L168.804 45.1845L158.137 61.8143Z" fill="#1C2127"/>
<path opacity="0.5" d="M145.589 38.2891C141.46 43.6026 138.559 49.7679 137.21 56.0953C136.311 60.3541 136.148 64.9374 139.049 68.02C144.118 73.374 153.601 72.9685 159.486 67.2494C160.467 66.2759 161.285 65.2213 162.061 64.0451C161.815 66.0326 161.407 67.5333 160.875 69.0341C160.058 71.346 158.914 73.4957 157.565 75.5643C156.135 77.7951 153.273 80.6344 151.27 82.4191C149.268 84.2036 146.897 85.5016 144.364 86.1912C143.095 86.5157 141.829 86.759 140.52 86.9212C137.742 87.2457 134.962 87.2457 132.347 86.5968C129.731 85.9477 127.36 84.6093 125.725 82.5813C122.823 78.9714 122.782 73.7796 123.027 69.0747C123.232 64.7346 124.09 60.3947 125.276 56.1358C126.052 53.256 127.196 50.3762 129.036 47.9021C130.834 45.3872 133.123 43.2376 135.412 41.169C137.905 38.8569 143.463 33.4625 145.589 38.2891Z" fill="url(#paint0_linear_3224_6680)"/>
<path d="M154.499 78.2006C151.474 80.0664 147.427 80.9181 144.567 79.2958C142.114 77.9167 141.501 74.9557 142.728 72.1975C144.24 68.75 146.283 65.5051 147.795 62.0574C149.471 58.2853 150.37 54.3509 150.289 50.376C150.247 48.5913 150.043 45.9144 149.675 44.2108C149.349 42.5073 149.062 41.1282 148.408 39.303C148.694 44.0892 147.999 49.0375 145.139 53.0935C140.683 59.421 133.776 64.491 131.691 72.1165C131.364 73.2927 131.242 74.5096 131.242 75.6859C129.525 71.0619 130.261 65.1806 132.345 60.2729C134.839 54.3509 139.866 49.8893 143.83 44.9003C152.046 34.6385 153.721 23.3627 148.367 12.4519C145.629 20.3206 141.828 27.5404 135.125 32.8944C129.198 37.64 122.332 41.1688 117.263 46.9283C114.893 49.6054 112.931 52.6879 111.541 56.4195C109.293 62.4226 109.089 68.9528 111.255 74.5096C113.912 81.2831 119.961 86.1504 127.032 88.0162C130.179 88.8274 133.531 89.0707 136.923 88.6651C138.558 88.4624 140.153 88.0973 141.746 87.5701C145.629 86.2721 149.022 84.6902 152.332 81.486C153.721 80.1475 155.397 78.525 156.583 76.9837C157.646 75.5641 158.586 74.1851 159.649 72.0354C158.422 74.3879 156.624 76.4565 154.499 78.2006Z" fill="url(#paint1_linear_3224_6680)"/>
<path d="M27.3037 76.4568L30.6552 62.3012L39.9741 61.2871L31.5544 99.0896L22.1536 100.144L25.1782 86.0291L20.6822 86.5159L17.4124 100.671L8.01172 101.726L16.5132 63.9235L25.8321 62.9096L22.8076 77.0247L27.3037 76.4568Z" fill="white"/>
<path d="M60.1244 86.5969L57.9991 96.0881L39.2794 98.1567L35.6826 94.1005L42.0587 65.5053L47.74 60.3948L66.4597 58.3262L64.3752 67.8174L50.4784 69.3587L49.2522 74.0231L63.476 72.4412L61.3506 81.9324L47.1269 83.5143L46.2277 88.1381L60.1244 86.5969Z" fill="white"/>
<path d="M79.2939 56.9067L72.9178 85.1368L87.1415 83.5549L85.0162 93.1272L66.2965 95.1958L62.6997 91.0586L69.9341 57.9207L79.2939 56.9067Z" fill="white"/>
<path d="M105.984 53.9456L99.6077 82.1756L113.831 80.5939L111.706 90.166L92.9864 92.2347L89.3896 88.0976L96.6241 54.9595L105.984 53.9456Z" fill="white"/>
<path d="M172.85 79.6611H172.442H172.074L171.706 79.7424H171.666H171.543C171.298 79.7828 171.052 79.8235 170.807 79.8639H170.765H170.726L170.48 79.945L169.417 80.1479H169.376H169.335C168.804 80.2696 168.273 80.3913 167.741 80.5535C167.25 80.6752 166.72 80.8374 166.148 80.9997C166.065 81.0402 165.944 81.0808 165.821 81.1213C165.779 81.1213 165.738 81.1213 165.698 81.1213C165.575 81.1213 165.453 81.1619 165.33 81.2025L155.643 83.2305C155.602 83.1899 155.561 83.1899 155.521 83.1494C155.153 82.906 154.743 82.7438 154.335 82.6627L154.171 82.6221H153.967C153.763 82.6221 153.476 82.5815 153.191 82.5815C152.904 82.5815 152.659 82.541 152.374 82.541C152.046 82.541 151.802 82.5004 151.556 82.5004C151.188 82.5004 151.024 82.5004 150.82 82.5004H150.656L150.493 82.541L136.515 85.4614C136.31 85.2585 136.106 85.0963 135.901 84.9746C135.656 84.8124 134.88 84.3257 133.776 84.4473L133.531 84.4879L133.286 84.569C133.245 84.569 133.081 84.6096 132.55 84.6907C132.019 84.7718 131.405 84.8529 130.833 84.934C130.261 85.0151 129.689 85.0963 129.198 85.1774C128.585 85.2585 128.176 85.2992 127.89 85.3803H127.849H127.809L127.563 85.4207H127.482L127.4 85.4614L127.236 85.5018L122.495 86.7593L122.168 86.8404C121.882 86.8404 121.555 86.8809 121.228 86.9215C120.86 86.9622 120.492 87.0026 120.125 87.0837L119.512 87.2054L120.247 85.1774L115.629 86.1509L105.697 88.2195H105.615H105.533C105.41 88.26 105.288 88.3006 105.165 88.3411C105.124 88.3411 105.084 88.3411 105.043 88.3411C104.92 88.3411 104.797 88.3817 104.675 88.3817C104.225 88.4628 103.776 88.5034 103.367 88.5845C102.876 88.6656 102.386 88.7467 101.895 88.8684V87.1648L98.7074 87.8544L92.4131 89.2335L92.1677 89.2741L91.6364 89.3958L84.1977 90.9775C83.8297 91.0588 83.5437 91.1803 83.135 91.3427C82.8897 91.4643 82.6036 91.586 82.2766 91.7077C81.9088 91.8699 81.5818 91.9916 81.2548 92.1538C80.9687 92.2755 80.6825 92.3972 80.4782 92.5189C80.1103 92.6811 79.7425 92.884 79.3338 93.1679C79.0068 93.4112 78.7206 93.6546 78.4346 93.8979C78.0667 94.2224 77.7806 94.5469 77.4944 94.9526C77.1267 95.4393 76.8814 95.926 76.7179 96.4532L74.8378 102.375C74.6334 102.983 74.5516 103.754 74.7151 104.444C74.5926 104.565 74.4699 104.687 74.3881 104.849C74.0204 105.377 73.6934 105.985 73.4481 106.756C73.3255 107.161 73.1212 107.729 72.9167 108.419C72.7532 108.784 72.6715 109.149 72.5898 109.514C72.549 109.635 72.549 109.757 72.508 109.919L72.4263 110.284V110.65C72.4263 112.028 73.0394 113.124 74.1429 113.651C74.7561 113.935 75.4918 114.057 76.35 113.975C76.5135 113.975 76.677 113.935 76.8814 113.894L82.1131 112.799L83.7072 112.475V112.434L90.819 110.933C92.1677 110.65 93.1488 110.325 93.9253 109.96C94.5384 109.676 95.1106 109.311 95.5602 108.905L96.7863 109.96L96.8273 110C97.6447 110.893 98.5847 110.974 99.2387 110.933H99.4022L99.5657 110.893L104.92 109.757C105.533 109.635 106.718 109.189 107.536 107.729C107.699 107.405 107.863 107.121 108.026 106.877L108.231 106.472L108.312 106.026V105.944C108.353 105.863 108.353 105.782 108.394 105.701C108.353 106.066 108.312 106.391 108.353 106.715C108.435 107.932 109.007 108.905 109.988 109.473C110.683 109.879 111.501 110 112.522 109.879C112.768 109.838 113.054 109.798 113.381 109.717L122.087 107.891C122.209 107.851 122.332 107.851 122.454 107.81L123.027 107.689L127.972 106.674L127.931 106.918L129.934 107.689L130.179 107.77L130.915 108.054L131.732 107.891L137.822 106.634L139.294 106.309L140.029 104.971L140.356 104.363L140.479 104.119L140.561 103.876L140.724 105.985L143.667 105.377L147.673 104.565C148 105.011 148.49 105.417 149.389 105.62C149.676 105.701 150.084 105.782 150.575 105.701C150.739 105.701 150.901 105.661 151.024 105.62L153.559 105.093C153.722 105.052 153.926 105.011 154.213 104.93C154.458 104.849 154.743 104.768 154.989 104.687C155.194 104.606 155.398 104.525 155.602 104.444C155.806 104.444 156.011 104.444 156.215 104.403C156.746 104.322 157.318 104.281 157.85 104.16C158.381 104.079 158.913 103.998 159.403 103.876H159.444H159.485L162.551 103.227L163.45 103.024C163.858 102.943 164.267 102.862 164.758 102.74C165.125 102.659 165.534 102.578 165.861 102.497L166.597 102.335C166.924 102.253 167.169 102.172 167.496 102.051C167.822 101.929 167.905 101.888 168.028 101.848L169.172 101.361L169.54 100.55C169.621 100.469 169.663 100.347 169.703 100.266C169.825 100.063 169.908 99.8603 170.031 99.617C170.112 99.4142 170.193 99.1708 170.316 98.968C170.357 98.8464 170.439 98.6841 170.48 98.5625L170.603 98.4001L170.726 98.0351C170.848 97.7512 170.97 97.3862 171.052 96.9806C171.134 96.656 171.215 96.3315 171.298 96.0071C171.379 95.7232 171.46 95.3581 171.583 94.912L172.196 92.5189L171.992 92.4377L172.727 90.2069L173.831 86.7593C174.199 86.2726 174.403 85.8264 174.485 85.4207L175.221 83.3116L176.406 79.9046L172.85 79.6611ZM122.781 97.1022C122.781 97.1022 122.741 97.1022 122.781 97.1022C122.659 97.1834 122.536 97.1834 122.414 97.2239L122.373 97.1834C122.495 97.1428 122.618 97.1022 122.781 97.1022Z" fill="#1C2127"/>
<path d="M90.247 97.3045L85.9553 98.1969L85.1379 98.3591C85.0153 98.3997 84.8927 98.6025 84.6884 98.9675C84.6474 99.1299 84.6066 99.2514 84.5657 99.3732C84.5249 99.4949 84.5657 99.6166 84.6884 99.6977L85.7919 99.4543L87.3859 99.1299L88.9799 98.8053L89.2251 98.7647C89.4296 98.7242 89.6339 98.6836 89.8383 98.6431C90.0426 98.6025 90.1653 98.6431 90.247 98.6431C90.247 98.7242 90.2878 98.7647 90.2878 98.8458C90.2878 98.927 90.3288 98.9675 90.4513 99.0081L90.4922 98.8458L90.6965 99.0081L90.901 98.6431C91.6367 98.3997 92.3314 98.2375 92.9446 98.1564C93.5985 98.0752 94.1299 98.0347 94.6204 98.0347C95.1109 98.0347 95.4787 98.1158 95.7648 98.2375C96.0509 98.3591 96.1736 98.5214 96.1736 98.6836C96.1326 98.7242 96.1326 98.7647 96.1326 98.7647C96.1736 98.8864 96.2144 99.1299 96.1736 99.4543C96.1736 99.7788 96.0918 100.144 95.9283 100.59L95.8874 100.996C95.7648 101.198 95.6422 101.482 95.5196 101.847C95.3969 102.212 95.3152 102.496 95.2744 102.699L94.9474 103.754C94.743 104.322 94.5795 104.808 94.4977 105.254C94.3752 105.66 94.2117 106.066 93.9665 106.39C93.7211 106.715 93.3124 106.999 92.7811 107.282C92.2497 107.526 91.4732 107.769 90.4105 108.012L82.6447 109.635C82.4813 109.675 82.3586 109.675 82.3586 109.635C82.3178 109.594 82.3176 109.554 82.3176 109.473C82.3176 109.392 82.3176 109.351 82.3176 109.27C82.3176 109.229 82.236 109.189 82.1541 109.189C82.0316 109.229 81.9089 109.31 81.8681 109.473C81.7864 109.635 81.7454 109.757 81.7046 109.838L76.473 110.933C76.0233 111.014 75.7372 111.014 75.492 110.892C75.2876 110.771 75.165 110.527 75.165 110.162C75.2058 109.96 75.2468 109.757 75.2876 109.554C75.3285 109.351 75.3693 109.148 75.492 108.986C75.6963 108.256 75.9007 107.688 76.0642 107.242C76.2277 106.796 76.3912 106.471 76.5547 106.228C76.7182 105.984 76.9634 105.822 77.1677 105.701C77.4129 105.579 77.7399 105.498 78.1896 105.417C78.3121 105.376 78.5983 105.336 79.0478 105.214C79.4975 105.092 79.988 105.011 80.5192 104.889C81.0507 104.768 81.5411 104.646 82.0316 104.524C82.5221 104.403 82.849 104.362 83.0125 104.322C83.0943 104.281 83.0943 104.362 83.0535 104.484C83.0125 104.605 83.0125 104.687 83.0535 104.727C83.2578 104.687 83.3804 104.687 83.4622 104.687C83.5439 104.687 83.5847 104.687 83.6665 104.687C83.7482 104.687 83.83 104.687 83.9117 104.646C84.0344 104.646 84.1979 104.605 84.4022 104.565C84.4431 104.524 84.5657 104.484 84.7292 104.443C84.7701 104.443 84.8519 104.403 84.9336 104.322C85.0153 104.24 85.1379 104.2 85.2196 104.119C85.3014 104.038 85.3831 103.956 85.5058 103.916C85.5876 103.835 85.6284 103.794 85.6693 103.754L88.3669 103.226C88.4077 103.226 88.4894 103.308 88.5712 103.429C88.6939 103.591 88.6939 103.713 88.6529 103.835L89.1434 102.496L89.593 101.442V101.32C89.6748 101.117 89.7565 100.914 89.7565 100.712C89.7973 100.509 89.7156 100.387 89.593 100.347C89.5113 100.428 89.4704 100.428 89.4296 100.428C89.3886 100.428 89.3886 100.428 89.3478 100.387L89.3069 100.347C89.3069 100.347 89.2661 100.347 89.2661 100.428C89.1843 100.59 89.1434 100.712 89.1434 100.752C89.1434 100.833 89.2661 100.874 89.4704 100.955C89.4704 101.036 89.3886 101.158 89.2661 101.32C89.1434 101.482 89.0616 101.604 88.9799 101.645C88.9391 101.685 88.8981 101.726 88.8981 101.807C88.8573 101.847 88.8573 101.888 88.8164 101.928L84.5249 102.821L84.4431 102.456L83.7074 102.983L79.5793 103.875C79.5793 103.754 79.4566 103.713 79.1705 103.713C78.9253 103.754 78.6391 103.754 78.3121 103.754C78.0261 103.754 77.7809 103.713 77.5764 103.591C77.3721 103.47 77.3312 103.226 77.4947 102.861L79.3748 96.9395C79.4158 96.7773 79.5383 96.5745 79.7018 96.3717C79.8653 96.1689 80.0288 96.0067 80.1923 95.8039C80.3967 95.6415 80.601 95.4794 80.8054 95.3172C81.0097 95.1548 81.2141 95.0332 81.4184 94.9926C81.6229 94.9115 81.8681 94.7898 82.1951 94.6276C82.5221 94.4653 82.849 94.3437 83.1352 94.222C83.4622 94.1003 83.7482 93.9786 83.9527 93.857C84.1979 93.7757 84.3204 93.6946 84.3614 93.6946L91.841 92.1128L91.2688 93.4918L92.6584 91.9101L98.9529 90.531V91.0582C98.8711 91.3421 98.8302 91.6666 98.7485 91.9912C98.7077 92.3562 98.5442 92.7212 98.3397 93.1674C98.2172 93.5729 98.0537 94.0192 97.8902 94.4248C97.7267 94.8304 97.5223 95.2765 97.2771 95.6415L90.247 97.3045ZM82.6447 108.378L82.3176 108.459L82.2768 108.864C82.3586 108.783 82.4403 108.743 82.4403 108.662C82.5221 108.54 82.563 108.459 82.6447 108.378Z" fill="url(#paint2_linear_3224_6680)"/>
<path d="M111.214 94.6276L109.538 94.6682L109.416 94.7493C109.17 95.4794 108.925 96.2094 108.68 96.899C108.435 97.6291 108.23 98.3187 108.067 99.0487C107.944 99.2921 107.822 99.5354 107.699 99.7789C107.576 100.022 107.372 100.225 107.045 100.428C107.004 100.428 106.963 100.387 106.963 100.347C106.963 100.266 106.963 100.184 106.963 100.144C106.963 100.063 106.963 100.022 106.963 99.9815C106.963 99.941 106.922 99.9004 106.841 99.9004C106.718 100.144 106.595 100.387 106.473 100.59C106.35 100.793 106.391 100.955 106.554 101.077C106.391 101.807 106.228 102.496 106.064 103.226C105.86 103.957 105.655 104.687 105.41 105.376L105.369 105.66C105.247 105.863 105.124 106.106 104.961 106.35C104.797 106.593 104.634 106.755 104.47 106.796L99.1157 107.931C99.0748 107.931 99.034 107.891 98.9522 107.81C98.8705 107.729 98.7887 107.648 98.7887 107.607L98.993 107.283C98.993 107.242 99.0749 107.12 99.1566 106.958C99.2384 106.755 99.3609 106.593 99.4427 106.39C99.5244 106.187 99.6062 105.985 99.6879 105.822C99.7697 105.66 99.8106 105.538 99.8106 105.498C99.8924 105.295 100.015 104.971 100.178 104.484C100.342 103.997 100.505 103.51 100.71 102.983C100.873 102.456 101.078 101.929 101.241 101.482C101.405 100.996 101.527 100.671 101.568 100.509C101.609 100.468 101.691 100.387 101.772 100.266C101.854 100.144 101.895 100.063 101.895 100.063V100.022C101.936 99.9411 101.977 99.9004 101.977 99.8599L101.936 99.8193C101.895 99.8193 101.895 99.8193 101.854 99.8193C101.854 99.8193 101.813 99.7789 101.813 99.7382C101.813 99.6976 101.854 99.6571 101.895 99.576C101.936 99.5354 101.977 99.4543 102.059 99.3732V99.3326C102.14 99.0893 102.181 98.8865 102.181 98.6837C102.181 98.4809 102.14 98.3187 102.059 98.197L102.631 96.4934L100.669 96.899C100.546 96.9396 100.342 96.9801 100.097 97.0207C99.8514 97.0612 99.6062 97.1018 99.32 97.1424C99.034 97.1829 98.7887 97.2235 98.5843 97.264C98.3391 97.3046 98.2165 97.3046 98.1348 97.3452L98.38 96.4934C98.5026 96.2094 98.6252 95.9255 98.7478 95.6822C98.8705 95.4388 98.9522 95.1549 98.993 94.9115C98.7887 94.9521 98.666 95.0332 98.6252 95.1549C98.5843 95.236 98.5435 95.3171 98.5025 95.3577C98.5025 95.3982 98.4618 95.3577 98.4208 95.236C98.38 95.0738 98.4208 94.9521 98.5025 94.8304L99.1566 92.4778L99.7289 92.275L99.9332 92.2345C100.015 92.1939 100.138 92.1939 100.26 92.1534C100.383 92.1128 100.505 92.0723 100.669 92.0723L101.977 91.7883C102.467 91.6667 102.958 91.5856 103.448 91.5044C103.939 91.4233 104.429 91.3422 105.001 91.2611C105.001 91.2611 105.042 91.2611 105.083 91.2611C105.124 91.3016 105.124 91.3016 105.124 91.3422C105.124 91.4233 105.124 91.5856 105.083 91.8289C105.042 92.0723 105.001 92.1939 105.001 92.3156L105.288 92.275C105.288 92.2345 105.287 92.1534 105.328 92.0317C105.369 91.91 105.41 91.7883 105.451 91.6667C105.492 91.545 105.574 91.4233 105.655 91.3016C105.737 91.18 105.86 91.1394 105.982 91.0989L115.914 89.0303L114.688 92.3967C114.443 92.4778 114.279 92.5996 114.157 92.7213C114.034 92.843 113.952 93.0052 113.912 93.1674C113.83 93.3297 113.748 93.5325 113.666 93.7758C113.585 93.9786 113.421 94.2625 113.217 94.5464C113.258 94.5871 113.176 94.5871 112.972 94.6276C112.767 94.6276 112.522 94.6682 112.277 94.6682C112.031 94.6682 111.786 94.7088 111.541 94.7088C111.296 94.506 111.214 94.5465 111.214 94.6276Z" fill="url(#paint3_linear_3224_6680)"/>
<path d="M111.827 103.064L111.99 102.78C112.072 102.659 112.153 102.578 112.194 102.456C112.235 102.334 112.276 102.294 112.317 102.253C112.317 102.253 112.317 102.212 112.276 102.212C112.235 102.212 112.235 102.172 112.235 102.172C112.194 102.172 112.113 102.172 111.99 102.172C111.908 102.172 111.827 102.172 111.786 102.212L114.647 93.7758C114.729 93.4919 114.81 93.1675 114.892 92.8836C114.974 92.5996 115.137 92.3157 115.301 92.0724C115.464 91.7885 115.669 91.545 115.955 91.3017C116.2 91.0583 116.568 90.7744 116.977 90.5311L118.203 90.2877L118.734 90.166L120.41 89.8009C120.982 89.6792 121.513 89.6387 122.004 89.6387C122.045 89.7605 122.086 89.8416 122.045 89.9633C122.004 90.0849 121.963 90.2066 121.922 90.3688C121.881 90.5311 121.84 90.6527 121.759 90.815C121.718 90.9772 121.677 91.0989 121.636 91.2206C121.718 91.2206 121.8 91.2206 121.8 91.2206L121.84 91.2611C121.84 91.2611 121.881 91.2206 121.881 91.18C121.881 91.1394 121.963 91.0989 122.045 91.0583C122.086 90.8555 122.126 90.5716 122.249 90.2472C122.331 89.9227 122.535 89.6387 122.862 89.4359L127.603 88.1786L127.767 88.138L128.012 88.0975C128.257 88.0569 128.625 88.0162 129.157 87.9351C129.688 87.854 130.26 87.7729 130.832 87.6918C131.405 87.6108 131.977 87.5295 132.508 87.4484C133.039 87.3673 133.407 87.3268 133.652 87.2456C133.734 87.2456 133.857 87.2862 134.02 87.3673C134.184 87.489 134.306 87.6108 134.47 87.8136C134.593 88.0162 134.715 88.2191 134.756 88.4625C134.797 88.7058 134.797 88.9897 134.674 89.2331L134.633 89.4766C134.552 89.5981 134.47 89.6792 134.388 89.7605C134.306 89.8416 134.266 89.9227 134.225 89.9633C134.184 90.0444 134.143 90.0849 134.143 90.0849C134.102 90.1255 134.102 90.2066 134.184 90.2877C134.225 90.3688 134.306 90.4094 134.306 90.45V90.6122L134.102 91.18L134.061 91.3422C133.939 91.7074 133.816 92.0318 133.693 92.2346C133.571 92.4374 133.489 92.6808 133.366 92.843C133.244 93.0458 133.121 93.208 132.999 93.4108C132.876 93.6136 132.713 93.8571 132.508 94.141C132.099 95.5201 131.691 96.8585 131.241 98.1565C130.791 99.4544 130.342 100.793 129.851 102.172C129.565 102.618 129.238 102.983 128.911 103.186C128.584 103.389 128.217 103.551 127.767 103.632L122.576 104.727C122.658 104.646 122.658 104.524 122.658 104.403C122.658 104.281 122.576 104.2 122.453 104.241C122.372 104.241 122.29 104.281 122.249 104.362C122.208 104.443 122.167 104.484 122.126 104.565C122.086 104.646 122.045 104.687 121.963 104.768C121.881 104.849 121.8 104.89 121.595 104.93L112.889 106.755C112.194 106.918 111.745 106.918 111.5 106.755C111.254 106.593 111.091 106.35 111.091 106.025C111.091 105.66 111.132 105.255 111.295 104.727C111.459 104.2 111.581 103.673 111.704 103.105L111.745 103.024L111.827 103.064ZM118.039 100.144C117.794 100.631 117.59 101.198 117.426 101.726L117.671 101.685C117.671 101.645 117.671 101.564 117.712 101.482C117.753 101.361 117.835 101.32 117.917 101.239C117.958 101.198 117.998 101.117 118.08 100.996C118.162 100.915 118.244 100.793 118.284 100.712C118.366 100.631 118.448 100.509 118.489 100.468C118.571 100.387 118.611 100.347 118.611 100.347L120.859 99.86C120.9 99.9006 120.941 99.9817 121.023 100.103C121.105 100.225 121.186 100.266 121.268 100.266L121.636 100.225C121.881 100.185 122.126 100.144 122.372 100.063C122.658 99.9817 122.903 99.9411 123.189 99.86C123.475 99.7789 123.761 99.7383 124.007 99.6572C124.252 99.5761 124.497 99.5355 124.701 99.4544C124.783 99.3733 124.865 99.2922 124.947 99.1704C125.028 99.0487 125.11 98.9676 125.192 98.8459L125.233 98.562C125.274 98.3998 125.396 98.1159 125.519 97.7103C125.642 97.3046 125.764 96.8585 125.928 96.3718C126.05 95.9256 126.173 95.4795 126.295 95.0333C126.418 94.6277 126.5 94.3032 126.5 94.141C126.5 93.8976 126.459 93.6947 126.377 93.5732C126.295 93.4515 126.091 93.4108 125.846 93.4919C124.947 93.6947 124.047 93.8976 123.189 94.141C122.331 94.3843 121.391 94.5871 120.369 94.7899C120.246 94.8305 120.124 94.9116 120.001 95.0333C119.878 95.1549 119.797 95.3173 119.715 95.4794C119.633 95.6416 119.592 95.804 119.551 95.9662C119.511 96.1284 119.47 96.2501 119.47 96.3312C119.347 96.6962 119.224 97.0613 119.143 97.4263C119.061 97.7914 118.938 98.1565 118.816 98.562C118.53 99.13 118.284 99.6572 118.039 100.144ZM120.941 92.5185C120.941 92.5591 120.982 92.5996 121.064 92.6402C121.186 92.5591 121.309 92.4374 121.432 92.2346C121.513 92.0318 121.595 91.8696 121.636 91.7074L121.677 91.4235L121.35 91.5046C121.309 91.5046 121.227 91.6261 121.186 91.8289C121.105 92.0318 121.023 92.1941 120.941 92.3157C120.982 92.4374 120.941 92.478 120.941 92.5185ZM122.617 103.713C122.617 103.794 122.658 103.835 122.74 103.875L122.78 103.47H122.658L122.617 103.713Z" fill="url(#paint4_linear_3224_6680)"/>
<path d="M132.346 100.509C132.468 100.266 132.55 100.023 132.673 99.7793C132.795 99.5358 132.836 99.2925 132.877 99.0897L133.081 98.6435C133.163 98.5624 133.245 98.4407 133.367 98.2378C133.49 98.0352 133.613 97.8728 133.735 97.6295C133.858 97.4267 133.94 97.2239 134.062 97.0211C134.144 96.8183 134.226 96.6966 134.226 96.575L134.267 96.4938C134.267 96.4533 134.226 96.4127 134.185 96.3722C134.103 96.3316 134.062 96.3316 134.021 96.3316C133.981 96.3722 133.94 96.4938 133.899 96.6561C133.858 96.8183 133.776 96.9805 133.694 97.1428C133.613 97.305 133.531 97.4672 133.408 97.6295C133.286 97.7511 133.204 97.8324 133.081 97.8728C133 97.9135 132.877 97.8324 132.795 97.7106C132.714 97.5889 132.673 97.4672 132.673 97.3861L135.534 89.0307L135.942 88.4222L150.82 85.2991C150.82 85.2991 150.943 85.2991 151.147 85.2991C151.351 85.2991 151.596 85.2991 151.883 85.3397C152.17 85.3397 152.414 85.3802 152.7 85.3802C152.987 85.3802 153.231 85.4208 153.395 85.4208C153.518 85.4614 153.64 85.5019 153.763 85.583C153.886 85.6641 154.008 85.7453 154.09 85.8669C154.171 85.9886 154.254 86.1103 154.294 86.2725C154.335 86.4347 154.294 86.5971 154.254 86.7592L151.924 93.7357C151.842 94.0601 151.679 94.344 151.433 94.5469C151.188 94.7497 150.943 94.9525 150.656 95.0742C150.371 95.1959 150.084 95.3175 149.799 95.4392C149.512 95.5203 149.266 95.642 149.062 95.7231C149.062 95.7231 149.062 95.7637 149.021 95.8042C149.021 95.8855 149.062 95.9666 149.104 96.007C149.144 96.0477 149.226 96.0881 149.308 96.0881C149.389 96.0881 149.472 96.1287 149.512 96.1287C149.595 96.1694 149.595 96.1694 149.595 96.2505C149.921 96.8589 150.167 97.4672 150.371 98.1568C150.575 98.8463 150.697 99.5764 150.779 100.306C150.779 100.347 150.739 100.388 150.739 100.55L150.697 100.753C150.533 100.874 150.412 100.915 150.371 100.956L143.382 102.416L143.176 100.023V99.9415C143.218 99.7793 143.299 99.6169 143.504 99.4547C143.544 99.4954 143.586 99.5358 143.627 99.5358C143.667 99.5764 143.75 99.6169 143.75 99.6169C143.75 99.6169 143.79 99.6169 143.79 99.5765L143.831 99.5358C143.831 99.4954 143.872 99.4547 143.872 99.4547C143.872 99.4141 143.872 99.333 143.912 99.2519C143.954 99.1302 143.954 99.0897 143.954 99.0897C143.912 98.9274 143.872 98.7652 143.831 98.5624C143.79 98.3596 143.75 98.1568 143.667 97.9946C143.627 97.7917 143.544 97.5889 143.463 97.305L140.112 97.9946C140.071 97.9946 140.029 97.9539 139.989 97.8324C139.948 97.7917 139.948 97.6295 139.948 97.4267C139.948 97.2239 139.989 97.0617 139.989 97.0211C140.235 96.8589 140.397 96.7372 140.439 96.6561C140.48 96.575 140.561 96.4533 140.643 96.2909C140.643 96.1694 140.684 96.0477 140.684 95.9666C140.684 95.8855 140.643 95.8042 140.561 95.7231C140.48 95.7637 140.357 95.8855 140.235 96.0881C140.112 96.291 139.989 96.4938 139.867 96.7372C139.744 96.9805 139.662 97.1833 139.58 97.3861C139.498 97.5889 139.457 97.7106 139.457 97.7917L139.212 98.3596C139.172 98.5219 139.049 98.8463 138.885 99.2925C138.722 99.7386 138.6 100.225 138.436 100.712C138.272 101.199 138.149 101.686 138.028 102.132C137.905 102.578 137.823 102.902 137.741 103.065L137.414 103.673L131.324 104.93L131.079 104.849C131.12 104.565 131.201 104.363 131.242 104.2C131.283 104.038 131.365 103.835 131.406 103.673C131.447 103.47 131.487 103.349 131.528 103.227L131.733 102.902C131.733 102.7 131.814 102.497 131.855 102.294C131.937 102.051 131.978 101.807 132.019 101.564L132.223 100.956L132.346 100.509ZM141.175 92.2349C141.175 92.2756 141.092 92.3971 141.011 92.6C140.929 92.8028 140.807 93.0462 140.684 93.3706C140.561 93.6951 140.439 93.9386 140.316 94.1008L140.275 94.344L140.235 94.5469C140.397 94.4658 140.561 94.3847 140.684 94.2225C140.807 94.1007 140.969 93.9386 141.092 93.8168C141.133 93.7762 141.215 93.7762 141.337 93.7357C141.46 93.6951 141.583 93.6545 141.747 93.614C141.869 93.5734 142.032 93.5329 142.155 93.4923C142.278 93.4518 142.359 93.4518 142.442 93.4518L143.422 93.249L144.199 93.0867L144.975 92.9245L146.079 92.6811C146.283 92.5595 146.406 92.3971 146.487 92.2756C146.569 92.1132 146.651 91.951 146.774 91.7888C146.814 91.4643 146.774 91.2615 146.61 91.2209C146.446 91.1398 146.202 91.1398 145.793 91.2209L141.501 92.1132L141.175 92.2349Z" fill="url(#paint5_linear_3224_6680)"/>
<path d="M154.948 100.428C154.948 100.468 154.907 100.509 154.907 100.549C154.866 100.712 154.907 100.833 154.948 100.955C155.03 101.077 155.03 101.198 154.907 101.361C154.907 101.442 154.826 101.563 154.662 101.645C154.539 101.726 154.376 101.807 154.171 101.888C153.967 101.969 153.803 102.01 153.64 102.05C153.476 102.091 153.353 102.131 153.272 102.131L150.493 102.699C150.493 102.699 150.37 102.699 150.206 102.659C150.044 102.618 149.961 102.577 150.002 102.577C150.002 102.496 150.002 102.375 150.044 102.212C150.084 102.05 150.125 101.928 150.125 101.847C150.533 100.184 151.024 98.6025 151.514 96.98C152.005 95.3983 152.536 93.7757 153.068 92.0723L153.108 91.8288L153.353 91.0177L153.559 90.7337C153.721 90.4498 153.967 90.2065 154.335 89.963C154.335 90.0037 154.376 90.0847 154.335 90.2065C154.335 90.3282 154.335 90.4093 154.376 90.4498C154.376 90.4498 154.376 90.531 154.335 90.6121C154.294 90.6932 154.254 90.7337 154.254 90.7743L154.499 90.7337L154.784 89.963C154.826 89.6386 154.743 89.4358 154.499 89.4358L155.602 86.0692L165.534 84.0007C165.656 83.9601 165.698 84.0008 165.738 84.0818C165.779 84.1629 165.779 84.2847 165.738 84.4062C165.698 84.528 165.656 84.6497 165.615 84.7714C165.534 84.893 165.492 84.9742 165.452 85.0553L165.738 85.0147C165.82 84.893 165.943 84.7308 166.025 84.4875C166.147 84.244 166.229 84.0818 166.31 83.9601C166.31 83.9601 166.351 83.9195 166.393 83.879C166.433 83.8384 166.474 83.7979 166.474 83.7979C167.046 83.6356 167.578 83.514 168.027 83.3923C168.518 83.2706 169.008 83.1489 169.498 83.0272L170.684 82.8245L171.052 82.7432C171.215 82.7028 171.337 82.7028 171.46 82.6622C171.583 82.6217 171.665 82.6217 171.788 82.6217L172.032 82.5811H172.441L171.624 84.9742C171.624 85.0147 171.583 85.0958 171.501 85.2175C171.379 85.3392 171.337 85.4203 171.297 85.4203L171.256 85.4609C171.175 85.5014 171.133 85.5014 171.175 85.4609C171.175 85.4203 171.215 85.4203 171.215 85.3797C171.215 85.3392 171.215 85.3392 171.175 85.2986C171.133 85.2986 171.011 85.2986 170.806 85.3392C170.765 85.5825 170.725 85.8664 170.642 86.1098C170.561 86.3531 170.48 86.6371 170.397 86.8805L170.357 87.0427L170.316 87.5294L170.112 87.7322C170.03 87.7728 169.825 87.8133 169.58 87.8539C169.336 87.935 169.049 87.9757 168.804 88.0568C168.518 88.1379 168.273 88.2189 168.027 88.2596C167.782 88.3407 167.618 88.3813 167.537 88.3813L165.248 88.868L163.449 89.233L161.815 89.598L159.444 90.0847L159.158 90.4093L158.749 91.9912C158.749 91.9912 158.749 91.9912 158.709 92.0317C158.667 92.0723 158.667 92.0723 158.667 92.0317C158.79 91.9912 158.913 91.9506 159.076 91.8695C159.198 91.7884 159.281 91.7071 159.321 91.6666L169.825 89.5169L168.968 92.194L167.823 92.8834L158.913 94.6681L157.85 95.2359C157.809 95.2765 157.727 95.3576 157.646 95.3982C157.482 95.9661 157.401 96.4528 157.278 96.8584C157.155 97.2641 157.074 97.7508 156.91 98.3591C157.074 98.3186 157.195 98.2375 157.278 98.1563C157.359 98.0752 157.401 97.9534 157.401 97.7913C157.441 97.6695 157.441 97.5073 157.482 97.3856C157.482 97.2234 157.563 97.1017 157.686 96.98C157.85 96.8584 157.973 96.7367 158.095 96.615C158.218 96.4933 158.299 96.4122 158.341 96.4122L168.396 94.3031L168.641 94.3842C168.518 94.8303 168.435 95.1954 168.354 95.4793C168.273 95.7633 168.19 96.0878 168.109 96.4122C168.027 96.7367 167.945 96.98 167.863 97.1828C167.823 97.2641 167.741 97.3856 167.659 97.548C167.578 97.7102 167.495 97.913 167.455 98.1158C167.373 98.3186 167.291 98.4808 167.25 98.6836C167.169 98.8458 167.127 98.9675 167.046 99.0486C167.046 99.0486 167.046 99.0892 167.006 99.0892C166.965 99.1297 166.965 99.1297 166.923 99.1703C166.883 99.211 166.761 99.2514 166.555 99.3325C166.351 99.4136 166.229 99.4543 166.187 99.4543L165.411 99.6164C165.003 99.6977 164.594 99.7788 164.186 99.9004C163.776 100.022 163.368 100.103 163 100.184L162.06 100.387L158.994 101.036C158.503 101.117 158.013 101.198 157.523 101.279C157.033 101.361 156.542 101.442 156.051 101.482C155.806 101.523 155.643 101.482 155.52 101.401C155.398 101.32 155.356 101.239 155.275 101.117C155.234 100.996 155.194 100.874 155.152 100.752C155.111 100.631 154.988 100.509 154.866 100.428C154.948 100.347 154.948 100.387 154.948 100.428Z" fill="url(#paint6_linear_3224_6680)"/>
<defs>
<linearGradient id="paint0_linear_3224_6680" x1="122.96" y1="61.7383" x2="162.046" y2="61.7383" gradientUnits="userSpaceOnUse">
<stop stop-color="#EF5A5A"/>
<stop offset="1" stop-color="#FFC350"/>
</linearGradient>
<linearGradient id="paint1_linear_3224_6680" x1="131.254" y1="22.7426" x2="136.355" y2="94.0135" gradientUnits="userSpaceOnUse">
<stop stop-color="#EF5A5A"/>
<stop offset="1" stop-color="#FFC350"/>
</linearGradient>
<linearGradient id="paint2_linear_3224_6680" x1="63.4088" y1="99.3659" x2="172.735" y2="106.089" gradientUnits="userSpaceOnUse">
<stop stop-color="#EF5A5A"/>
<stop offset="1" stop-color="#FFC350"/>
</linearGradient>
<linearGradient id="paint3_linear_3224_6680" x1="63.6302" y1="95.7563" x2="172.955" y2="102.479" gradientUnits="userSpaceOnUse">
<stop stop-color="#EF5A5A"/>
<stop offset="1" stop-color="#FFC350"/>
</linearGradient>
<linearGradient id="paint4_linear_3224_6680" x1="63.7672" y1="93.5183" x2="173.092" y2="100.241" gradientUnits="userSpaceOnUse">
<stop stop-color="#EF5A5A"/>
<stop offset="1" stop-color="#FFC350"/>
</linearGradient>
<linearGradient id="paint5_linear_3224_6680" x1="63.958" y1="90.4347" x2="173.283" y2="97.1579" gradientUnits="userSpaceOnUse">
<stop stop-color="#EF5A5A"/>
<stop offset="1" stop-color="#FFC350"/>
</linearGradient>
<linearGradient id="paint6_linear_3224_6680" x1="64.1862" y1="86.7179" x2="173.512" y2="93.4409" gradientUnits="userSpaceOnUse">
<stop stop-color="#EF5A5A"/>
<stop offset="1" stop-color="#FFC350"/>
</linearGradient>
</defs>
</svg>
