<svg xmlns="http://www.w3.org/2000/svg" width="24" height="24" viewBox="0 0 24 24" fill="none">
  <path d="M23.928 11.5919L21.24 4.10395C20.484 2.33995 18.744 1.19995 16.824 1.19995H7.17595C5.256 1.19995 3.51595 2.33995 2.736 4.17595L0.072 11.5919C0.024 11.7239 0 11.8559 0 11.9999V17.9999C0 20.6519 2.14795 22.7999 4.8 22.7999H19.2C21.852 22.7999 24 20.6519 24 17.9999V11.9999C24 11.8559 23.976 11.7239 23.928 11.5919ZM4.968 5.0519C5.352 4.1759 6.21595 3.59995 7.17595 3.59995H16.824C17.784 3.59995 18.648 4.1759 19.008 4.9919L21.096 10.7999H15.6C14.94 10.7999 14.4 11.3399 14.4 11.9999C14.4 13.3199 13.32 14.3999 12 14.3999C10.68 14.3999 9.6 13.3199 9.6 11.9999C9.6 11.3399 9.06 10.7999 8.4 10.7999H2.904L4.968 5.0519ZM21.6 17.9999C21.6 19.3199 20.52 20.3999 19.2 20.3999H4.8C3.48005 20.3999 2.4 19.3199 2.4 17.9999V13.1999H7.356C7.884 15.2639 9.768 16.7999 12 16.7999C14.232 16.7999 16.116 15.2639 16.644 13.1999H21.6V17.9999Z" fill="#778597">
  </path>
</svg>