<svg width="20" height="20" viewBox="0 0 20 20" fill="none" xmlns="http://www.w3.org/2000/svg">
<path d="M10 14.375C9.8912 14.375 9.78429 14.3466 9.68984 14.2926L4.21875 11.1656C4.17121 11.1382 4.11728 11.1237 4.06238 11.1237C4.00749 11.1238 3.95357 11.1382 3.90605 11.1657C3.85853 11.1932 3.81909 11.2327 3.79169 11.2803C3.7643 11.3279 3.74992 11.3818 3.75 11.4367V14.375C3.74991 14.4865 3.77967 14.5961 3.8362 14.6922C3.89273 14.7884 3.97397 14.8677 4.07148 14.9219L9.69648 18.0469C9.78933 18.0984 9.89379 18.1255 10 18.1255C10.1062 18.1255 10.2107 18.0984 10.3035 18.0469L15.9285 14.9219C16.026 14.8677 16.1073 14.7884 16.1638 14.6922C16.2203 14.5961 16.2501 14.4865 16.25 14.375V11.4367C16.2501 11.3818 16.2357 11.3279 16.2083 11.2803C16.1809 11.2327 16.1415 11.1932 16.0939 11.1657C16.0464 11.1382 15.9925 11.1238 15.9376 11.1237C15.8827 11.1237 15.8288 11.1382 15.7812 11.1656L10.3102 14.2926C10.2157 14.3466 10.1088 14.375 10 14.375Z" fill="#6080FF"/>
<path d="M19.3719 7.44143C19.3719 7.44143 19.3719 7.43831 19.3719 7.43714C19.3618 7.33807 19.3281 7.24285 19.2738 7.15941C19.2194 7.07597 19.1459 7.00673 19.0594 6.95745L10.3094 1.95745C10.2149 1.90346 10.108 1.87506 9.99922 1.87506C9.89042 1.87506 9.78351 1.90346 9.68906 1.95745L0.93906 6.95745C0.84343 7.01213 0.763949 7.09111 0.70867 7.18639C0.65339 7.28167 0.624276 7.38987 0.624276 7.50003C0.624276 7.61018 0.65339 7.71838 0.70867 7.81367C0.763949 7.90895 0.84343 7.98793 0.93906 8.04261L9.68906 13.0426C9.78351 13.0966 9.89042 13.125 9.99922 13.125C10.108 13.125 10.2149 13.0966 10.3094 13.0426L18.0078 8.64378C18.0197 8.63691 18.0332 8.6333 18.047 8.63331C18.0607 8.63332 18.0742 8.63696 18.0861 8.64386C18.098 8.65075 18.1078 8.66066 18.1147 8.67257C18.1215 8.68449 18.1251 8.69801 18.125 8.71175V14.3574C18.125 14.6938 18.3836 14.9825 18.7199 14.9992C18.8044 15.0033 18.8889 14.9902 18.9682 14.9607C19.0474 14.9311 19.1199 14.8858 19.1812 14.8274C19.2424 14.7691 19.2912 14.6989 19.3245 14.6211C19.3578 14.5434 19.375 14.4596 19.375 14.375V7.50003C19.375 7.48046 19.3739 7.4609 19.3719 7.44143Z" fill="#6080FF"/>
</svg>
