<svg xmlns="http://www.w3.org/2000/svg" width="24" height="24" viewBox="0 0 24 24" fill="none">
  <path d="M13.2008 22.8C13.2008 23.4627 12.6635 24 12.0008 24H6.0008C3.35414 24 1.2008 21.8467 1.2008 19.2V4.8C1.2008 2.15334 3.35414 0 6.0008 0H12.0008C12.6635 0 13.2008 0.537281 13.2008 1.2C13.2008 1.86272 12.6635 2.4 12.0008 2.4H6.0008C4.67719 2.4 3.6008 3.47634 3.6008 4.8V19.2C3.6008 20.5236 4.67719 21.6 6.0008 21.6H12.0008C12.6635 21.6 13.2008 22.1373 13.2008 22.8ZM22.7082 12.4586C22.8295 12.1652 22.8295 11.8349 22.7082 11.5414C22.6473 11.3946 22.5596 11.2618 22.4489 11.1512L17.6492 6.35156C17.1805 5.88281 16.4211 5.88281 15.9524 6.35156C15.4836 6.82031 15.4836 7.57969 15.9524 8.04844L18.7039 10.8H9.6008C8.93812 10.8 8.4008 11.3373 8.4008 12C8.4008 12.6627 8.93812 13.2 9.6008 13.2H18.7039L15.9524 15.9516C15.4836 16.4203 15.4836 17.1797 15.9524 17.6484C16.1867 17.8828 16.4938 18 16.8008 18C17.1078 18 17.4149 17.8828 17.6492 17.6484L22.4489 12.8488C22.5596 12.7382 22.6473 12.6054 22.7082 12.4586Z" fill="#778597">
  </path>
</svg>