<svg width="19" height="18" viewBox="0 0 19 18" fill="none" xmlns="http://www.w3.org/2000/svg">
  <g opacity="0.2">
    <path d="M1.17078 15.6519L2.31543 13.8631C2.84409 13.0375 3.12343 12.0919 3.12343 11.1294V9.5625C3.12343 7.58438 4.53143 5.91126 6.45678 5.37188V4.25001C6.45678 3.56063 7.05478 3 7.79012 3C8.52546 3 9.12346 3.56063 9.12346 4.25001V5.37188C11.0488 5.91126 12.4568 7.58438 12.4568 9.5625V11.1294C12.4568 12.0919 12.7361 13.0369 13.2641 13.8625L14.4088 15.6513C14.4708 15.7482 14.4721 15.8682 14.4128 15.9663C14.3534 16.0644 14.2434 16.125 14.1234 16.125H1.45678C1.33678 16.125 1.22612 16.0644 1.16678 15.9669C1.10743 15.8694 1.10943 15.7481 1.17078 15.6519Z" fill="white">
    </path>
    <path d="M9.8894 16.7499C9.5134 17.4862 8.7174 17.9999 7.79009 17.9999C6.86278 17.9999 6.06675 17.4862 5.69075 16.7499H9.8894Z" fill="white">
    </path>
  </g>
</svg>