<svg xmlns="http://www.w3.org/2000/svg" width="24" height="24" viewBox="0 0 24 24" fill="none">
  <rect x="3.2" y="1.2" width="17.6" height="21.6" rx="2.8" class="stroke" stroke="#778597" stroke-width="2.4">
  </rect>
  <path d="M12 4.80005C9.24307 4.80005 7 7.04312 7 9.80006C7 12.557 9.24307 14.8001 12 14.8001C14.7569 14.8001 17 12.557 17 9.80006C17 7.04312 14.7569 4.80005 12 4.80005ZM12 12.3001C10.6212 12.3001 9.5 11.1788 9.5 9.80006C9.5 8.4213 10.6212 7.30005 12 7.30005C13.3788 7.30005 14.5 8.42125 14.5 9.80006C14.5 11.1789 13.3788 12.3001 12 12.3001Z" fill="#778597">
  </path>
  <rect x="7.00001" y="16.8" width="10" height="2.4" rx="1.2" class="fill" fill="#778597">
  </rect>
</svg>