<svg width="15" height="15" viewBox="0 0 15 15" fill="none" xmlns="http://www.w3.org/2000/svg">
<path d="M3.74149 11.3893C3.12979 10.8385 2.68851 10.1781 2.39939 9.46901C1.63247 7.58824 1.99159 5.3514 3.4889 3.80843L4.87056 5.1901C4.94665 5.26618 5.0836 5.2114 5.10186 5.0988L5.8566 0.159495C5.86877 0.0773253 5.79878 0.00732901 5.71661 0.0195023L0.774258 0.774245C0.661655 0.792505 0.606876 0.929455 0.682959 1.00554L2.06767 2.39025C-0.217864 4.72752 -0.607408 8.23342 0.892948 10.9724C1.34336 11.7971 1.96724 12.5519 2.76154 13.1849C4.11278 14.2592 5.77443 14.7735 7.42391 14.74L7.73433 12.7101C6.3131 12.8319 4.8523 12.3936 3.74149 11.3893Z" fill="white"/>
<path d="M12.9323 12.6097C15.2178 10.2724 15.6074 6.76654 14.107 4.02755C13.6566 3.20282 13.0327 2.44807 12.2384 1.81506C10.8872 0.740771 9.22552 0.22645 7.57604 0.259926L7.26562 2.28982C8.68381 2.16809 10.1476 2.60632 11.2585 3.61062C11.8702 4.16146 12.3114 4.82186 12.6006 5.53095C13.3675 7.41172 13.0084 9.64856 11.5111 11.1915L10.1294 9.80986C10.0533 9.73378 9.91636 9.78856 9.8981 9.90116L9.14335 14.8405C9.13118 14.9226 9.20118 14.9926 9.28335 14.9805L14.2257 14.2257C14.3383 14.2075 14.39 14.0705 14.317 13.9944L12.9323 12.6097Z" fill="white"/>
</svg>
