<svg xmlns="http://www.w3.org/2000/svg" width="24" height="24" viewBox="0 0 24 24" fill="none">
  <path d="M21.5877 12.8771L21.5614 12.8648C21.5871 12.5842 21.6 12.2953 21.6 12C21.6 11.7047 21.5871 11.4152 21.5614 11.1346L21.5871 11.1223C22.3448 10.7666 22.9225 10.1051 23.1739 9.30703C23.4246 8.50838 23.3291 7.63477 22.9114 6.90998L21.8637 5.09062C21.4459 4.3658 20.7381 3.84548 19.9219 3.66155C19.1074 3.47873 18.2443 3.6457 17.5576 4.12209L17.5189 4.14844C17.0513 3.81619 16.5539 3.52791 16.0295 3.28655L16.0324 3.25022C16.1021 2.41641 15.8174 1.58498 15.2507 0.969141C14.6848 0.353297 13.8797 0 13.043 0H10.957C10.1203 0 9.31523 0.353297 8.74922 0.969141C8.18264 1.58498 7.89787 2.41641 7.96758 3.25022L7.97048 3.28655C7.44604 3.52795 6.94861 3.81623 6.48103 4.14844L6.44297 4.12209C5.75508 3.64631 4.89258 3.47873 4.07812 3.66155C3.26194 3.84553 2.55408 4.36584 2.13572 5.09123L1.08867 6.90998C0.670875 7.63477 0.575391 8.50842 0.826172 9.30703C1.07752 10.1051 1.6553 10.7666 2.41172 11.1217L2.43867 11.1345C2.41289 11.4152 2.4 11.7047 2.4 12C2.4 12.2953 2.41289 12.5842 2.43867 12.8648L2.41233 12.8777C1.65469 13.2334 1.07695 13.8955 0.826172 14.6935C0.575391 15.4916 0.671484 16.3652 1.08867 17.09L2.13572 18.9082C2.55347 19.6336 3.26128 20.1545 4.07751 20.3379C4.89253 20.5213 5.75564 20.3543 6.44236 19.878L6.48103 19.8516C6.94861 20.1838 7.44609 20.4721 7.97048 20.7135L7.96758 20.7499C7.89783 21.5837 8.18259 22.4151 8.74922 23.031C9.31523 23.6467 10.1203 24 10.957 24H13.043C13.8797 24 14.6848 23.6467 15.2508 23.0309C15.8174 22.415 16.1022 21.5836 16.0324 20.7498L16.0295 20.7135C16.5539 20.472 17.0514 20.1838 17.519 19.8515L17.557 19.8779C18.2449 20.3536 19.1074 20.5212 19.9225 20.3378C20.7387 20.1544 21.4465 19.6335 21.8643 18.9081L22.9113 17.0899C23.3285 16.3651 23.4246 15.4915 23.1738 14.6934C22.923 13.8954 22.3453 13.2334 21.5877 12.8771ZM19.0705 10.6787C19.1566 11.08 19.2 11.5242 19.2 12C19.2 12.4758 19.1566 12.9199 19.0705 13.3213C18.9539 13.8668 19.2287 14.4211 19.7338 14.6584L20.567 15.0492C20.7744 15.1471 20.8546 15.3187 20.8839 15.4125C20.9132 15.5069 20.946 15.6937 20.8312 15.8924L19.7841 17.7106C19.6699 17.9092 19.4918 17.9748 19.3956 17.9965C19.3007 18.0182 19.1109 18.0346 18.9228 17.9046L18.1547 17.373C17.7023 17.0602 17.0947 17.0936 16.6799 17.4586C16.0067 18.0498 15.2291 18.5004 14.3684 18.7974C13.8493 18.9767 13.5182 19.4847 13.5639 20.032L13.6406 20.9502C13.66 21.1781 13.5509 21.334 13.4842 21.4061C13.418 21.4787 13.2721 21.6 13.043 21.6H10.957C10.7279 21.6 10.582 21.4787 10.5158 21.4061C10.449 21.334 10.34 21.1781 10.3594 20.9502L10.4361 20.0321C10.4818 19.4848 10.1508 18.9768 9.63164 18.7975C8.77087 18.5004 7.99336 18.0499 7.32014 17.4587C7.09457 17.2606 6.81211 17.1599 6.52795 17.1599C6.29006 17.1599 6.05161 17.2302 5.84536 17.3731L5.07661 17.9046C4.88911 18.0346 4.69926 18.0182 4.60434 17.9965C4.50825 17.9749 4.33012 17.9093 4.21589 17.7106L3.16875 15.8924C3.0539 15.6937 3.08672 15.5069 3.11601 15.4125C3.14531 15.3187 3.22561 15.1471 3.43303 15.0498L4.26623 14.6584C4.77131 14.4211 5.04614 13.8668 4.92951 13.3213C4.84336 12.92 4.80004 12.4758 4.80004 12C4.80004 11.5242 4.8434 11.0801 4.92951 10.6787C5.04614 10.1338 4.77131 9.57947 4.26684 9.34219L3.43247 8.94961C3.22566 8.85234 3.14536 8.68064 3.11606 8.5875C3.08676 8.49319 3.05395 8.30625 3.1688 8.10759L4.21528 6.28945C4.33012 6.0908 4.50825 6.02522 4.60434 6.00352C4.69983 5.98242 4.88911 5.96545 5.07722 6.09553L5.84536 6.62695C6.2977 6.93984 6.90534 6.9053 7.32018 6.54141C7.9934 5.95017 8.77096 5.49961 9.63168 5.20256C10.1508 5.02327 10.4819 4.51523 10.4362 3.96797L10.3594 3.04978C10.34 2.82187 10.449 2.66597 10.5158 2.59392C10.582 2.52127 10.7279 2.39995 10.957 2.39995H13.043C13.2721 2.39995 13.418 2.52122 13.4842 2.59392C13.551 2.66597 13.66 2.82183 13.6406 3.04978L13.5638 3.96797C13.5181 4.51523 13.8492 5.02322 14.3684 5.20256C15.2291 5.49961 16.0066 5.95022 16.6799 6.54141C17.0941 6.90525 17.7023 6.94041 18.1546 6.62695L18.9234 6.09553C19.1109 5.96545 19.3007 5.98186 19.3956 6.00352C19.4917 6.02522 19.6699 6.09084 19.7841 6.28889L20.8312 8.10764C20.946 8.3063 20.9132 8.49319 20.8839 8.58755C20.8546 8.68073 20.7744 8.85239 20.5663 8.95027L19.7331 9.34228C19.2287 9.57952 18.9539 10.1338 19.0705 10.6787ZM12 7.2C9.35334 7.2 7.2 9.35334 7.2 12C7.2 14.6467 9.35334 16.8 12 16.8C14.6467 16.8 16.8 14.6467 16.8 12C16.8 9.35334 14.6467 7.2 12 7.2ZM12 14.4C10.6763 14.4 9.6 13.3236 9.6 12C9.6 10.6764 10.6763 9.6 12 9.6C13.3237 9.6 14.4 10.6763 14.4 12C14.4 13.3237 13.3236 14.4 12 14.4Z" fill="#778597">
  </path>
  <svg xmlns="http://www.w3.org/2000/svg" width="24" height="24" viewBox="0 0 24 24" fill="none">
    <path d="M21.5877 12.8771L21.5614 12.8648C21.5871 12.5842 21.6 12.2953 21.6 12C21.6 11.7047 21.5871 11.4152 21.5614 11.1346L21.5871 11.1223C22.3448 10.7666 22.9225 10.1051 23.1739 9.30703C23.4246 8.50838 23.3291 7.63477 22.9114 6.90998L21.8637 5.09062C21.4459 4.3658 20.7381 3.84548 19.9219 3.66155C19.1074 3.47873 18.2443 3.6457 17.5576 4.12209L17.5189 4.14844C17.0513 3.81619 16.5539 3.52791 16.0295 3.28655L16.0324 3.25022C16.1021 2.41641 15.8174 1.58498 15.2507 0.969141C14.6848 0.353297 13.8797 0 13.043 0H10.957C10.1203 0 9.31523 0.353297 8.74922 0.969141C8.18264 1.58498 7.89787 2.41641 7.96758 3.25022L7.97048 3.28655C7.44604 3.52795 6.94861 3.81623 6.48103 4.14844L6.44297 4.12209C5.75508 3.64631 4.89258 3.47873 4.07812 3.66155C3.26194 3.84553 2.55408 4.36584 2.13572 5.09123L1.08867 6.90998C0.670875 7.63477 0.575391 8.50842 0.826172 9.30703C1.07752 10.1051 1.6553 10.7666 2.41172 11.1217L2.43867 11.1345C2.41289 11.4152 2.4 11.7047 2.4 12C2.4 12.2953 2.41289 12.5842 2.43867 12.8648L2.41233 12.8777C1.65469 13.2334 1.07695 13.8955 0.826172 14.6935C0.575391 15.4916 0.671484 16.3652 1.08867 17.09L2.13572 18.9082C2.55347 19.6336 3.26128 20.1545 4.07751 20.3379C4.89253 20.5213 5.75564 20.3543 6.44236 19.878L6.48103 19.8516C6.94861 20.1838 7.44609 20.4721 7.97048 20.7135L7.96758 20.7499C7.89783 21.5837 8.18259 22.4151 8.74922 23.031C9.31523 23.6467 10.1203 24 10.957 24H13.043C13.8797 24 14.6848 23.6467 15.2508 23.0309C15.8174 22.415 16.1022 21.5836 16.0324 20.7498L16.0295 20.7135C16.5539 20.472 17.0514 20.1838 17.519 19.8515L17.557 19.8779C18.2449 20.3536 19.1074 20.5212 19.9225 20.3378C20.7387 20.1544 21.4465 19.6335 21.8643 18.9081L22.9113 17.0899C23.3285 16.3651 23.4246 15.4915 23.1738 14.6934C22.923 13.8954 22.3453 13.2334 21.5877 12.8771ZM19.0705 10.6787C19.1566 11.08 19.2 11.5242 19.2 12C19.2 12.4758 19.1566 12.9199 19.0705 13.3213C18.9539 13.8668 19.2287 14.4211 19.7338 14.6584L20.567 15.0492C20.7744 15.1471 20.8546 15.3187 20.8839 15.4125C20.9132 15.5069 20.946 15.6937 20.8312 15.8924L19.7841 17.7106C19.6699 17.9092 19.4918 17.9748 19.3956 17.9965C19.3007 18.0182 19.1109 18.0346 18.9228 17.9046L18.1547 17.373C17.7023 17.0602 17.0947 17.0936 16.6799 17.4586C16.0067 18.0498 15.2291 18.5004 14.3684 18.7974C13.8493 18.9767 13.5182 19.4847 13.5639 20.032L13.6406 20.9502C13.66 21.1781 13.5509 21.334 13.4842 21.4061C13.418 21.4787 13.2721 21.6 13.043 21.6H10.957C10.7279 21.6 10.582 21.4787 10.5158 21.4061C10.449 21.334 10.34 21.1781 10.3594 20.9502L10.4361 20.0321C10.4818 19.4848 10.1508 18.9768 9.63164 18.7975C8.77087 18.5004 7.99336 18.0499 7.32014 17.4587C7.09457 17.2606 6.81211 17.1599 6.52795 17.1599C6.29006 17.1599 6.05161 17.2302 5.84536 17.3731L5.07661 17.9046C4.88911 18.0346 4.69926 18.0182 4.60434 17.9965C4.50825 17.9749 4.33012 17.9093 4.21589 17.7106L3.16875 15.8924C3.0539 15.6937 3.08672 15.5069 3.11601 15.4125C3.14531 15.3187 3.22561 15.1471 3.43303 15.0498L4.26623 14.6584C4.77131 14.4211 5.04614 13.8668 4.92951 13.3213C4.84336 12.92 4.80004 12.4758 4.80004 12C4.80004 11.5242 4.8434 11.0801 4.92951 10.6787C5.04614 10.1338 4.77131 9.57947 4.26684 9.34219L3.43247 8.94961C3.22566 8.85234 3.14536 8.68064 3.11606 8.5875C3.08676 8.49319 3.05395 8.30625 3.1688 8.10759L4.21528 6.28945C4.33012 6.0908 4.50825 6.02522 4.60434 6.00352C4.69983 5.98242 4.88911 5.96545 5.07722 6.09553L5.84536 6.62695C6.2977 6.93984 6.90534 6.9053 7.32018 6.54141C7.9934 5.95017 8.77096 5.49961 9.63168 5.20256C10.1508 5.02327 10.4819 4.51523 10.4362 3.96797L10.3594 3.04978C10.34 2.82187 10.449 2.66597 10.5158 2.59392C10.582 2.52127 10.7279 2.39995 10.957 2.39995H13.043C13.2721 2.39995 13.418 2.52122 13.4842 2.59392C13.551 2.66597 13.66 2.82183 13.6406 3.04978L13.5638 3.96797C13.5181 4.51523 13.8492 5.02322 14.3684 5.20256C15.2291 5.49961 16.0066 5.95022 16.6799 6.54141C17.0941 6.90525 17.7023 6.94041 18.1546 6.62695L18.9234 6.09553C19.1109 5.96545 19.3007 5.98186 19.3956 6.00352C19.4917 6.02522 19.6699 6.09084 19.7841 6.28889L20.8312 8.10764C20.946 8.3063 20.9132 8.49319 20.8839 8.58755C20.8546 8.68073 20.7744 8.85239 20.5663 8.95027L19.7331 9.34228C19.2287 9.57952 18.9539 10.1338 19.0705 10.6787ZM12 7.2C9.35334 7.2 7.2 9.35334 7.2 12C7.2 14.6467 9.35334 16.8 12 16.8C14.6467 16.8 16.8 14.6467 16.8 12C16.8 9.35334 14.6467 7.2 12 7.2ZM12 14.4C10.6763 14.4 9.6 13.3236 9.6 12C9.6 10.6764 10.6763 9.6 12 9.6C13.3237 9.6 14.4 10.6763 14.4 12C14.4 13.3237 13.3236 14.4 12 14.4Z" fill="#778597">
    </path>
  </svg>
</svg>