<svg xmlns="http://www.w3.org/2000/svg" width="24" height="24" viewBox="0 0 24 24" fill="none">
  <g clip-path="url(#clip0_4174_8571)">
    <path d="M23.0953 17.0091C23.6419 17.3835 23.782 18.1304 23.4076 18.677C23.0139 19.2518 22.4362 19.7245 21.7379 20.0426L14.0183 23.5671C13.3861 23.8559 12.6931 24 12 24C11.307 24 10.6139 23.8559 9.98176 23.5671L2.26149 20.0426C1.56375 19.7245 0.986111 19.2518 0.592407 18.677C0.218063 18.1304 0.358079 17.3835 0.904642 17.0091C1.45242 16.6353 2.19821 16.7742 2.57255 17.3214C2.7196 17.5358 2.95627 17.7221 3.258 17.8598L10.9788 21.3842C11.608 21.6724 12.3907 21.6724 13.0211 21.3842L20.7414 17.8598C21.0437 17.7221 21.2803 17.5358 21.4274 17.3214C21.8029 16.7736 22.5493 16.6365 23.0953 17.0091ZM21.4274 12.5221C21.2804 12.7366 21.0437 12.9229 20.7414 13.0606L13.0211 16.585C12.3908 16.8732 11.6081 16.8732 10.9789 16.585L3.25805 13.0606C2.95636 12.9229 2.71964 12.7366 2.5726 12.5221C2.19825 11.975 1.45247 11.8361 0.904689 12.2099C0.358079 12.5843 0.218063 13.3312 0.592454 13.8778C0.986158 14.4526 1.5638 14.9253 2.26153 15.2434L9.9818 18.7679C10.6139 19.0567 11.307 19.2008 12.0001 19.2008C12.6931 19.2008 13.3862 19.0567 14.0183 18.7679L21.738 15.2434C22.4363 14.9253 23.014 14.4526 23.4076 13.8778C23.782 13.3312 23.6419 12.5843 23.0954 12.2099C22.5493 11.8373 21.8029 11.9755 21.4274 12.5221ZM0.00192261 7.2009C0.00192261 5.83646 0.867798 4.5939 2.2621 3.95767L9.98176 0.43323C11.246 -0.14441 12.754 -0.14441 14.0182 0.43323L21.7385 3.95767C23.1323 4.5939 23.9981 5.83646 23.9981 7.2009C23.9981 8.56534 23.1323 9.8079 21.738 10.4441L14.0183 13.9686C13.3862 14.2574 12.6931 14.4015 12.0001 14.4015C11.307 14.4015 10.614 14.2574 9.9818 13.9686L2.26149 10.4441C0.867798 9.80795 0.00192261 8.56534 0.00192261 7.2009ZM2.4015 7.2009C2.4015 7.61978 2.72194 8.01639 3.258 8.26126L10.9788 11.7857C11.608 12.0739 12.3907 12.0739 13.0211 11.7857L20.7414 8.26126C21.278 8.01639 21.5985 7.61978 21.5985 7.2009C21.5985 6.78203 21.278 6.38542 20.742 6.14054C20.742 6.14054 20.742 6.14054 20.7414 6.14054L13.0211 2.61611C12.7066 2.47196 12.3533 2.40053 12 2.40053C11.6468 2.40053 11.2941 2.47201 10.9789 2.61611L3.25861 6.14054C2.72199 6.38542 2.4015 6.78203 2.4015 7.2009Z" fill="#778597">
    </path>
  </g>
  <defs>
    <clipPath id="clip0_4174_8571">
      <rect width="24" height="24" fill="white">
      </rect>
    </clipPath>
  </defs>
</svg>