<svg width="16" height="16" viewBox="0 0 16 16" fill="none" xmlns="http://www.w3.org/2000/svg">
<g clip-path="url(#clip0_6686_9174)">
<path d="M7.95232 0.106812C3.77469 0.106812 0.352313 3.29224 0.0270996 7.34041L4.28957 9.08317C4.65074 8.8389 5.08706 8.69579 5.55645 8.69579C5.59851 8.69579 5.6404 8.69721 5.68194 8.69952L7.57749 5.98254C7.57749 5.96957 7.57731 5.95694 7.57731 5.94414C7.57731 4.30877 8.92257 2.97827 10.5765 2.97827C12.2302 2.97827 13.5755 4.30877 13.5755 5.94414C13.5755 7.57952 12.2302 8.91019 10.5765 8.91019C10.5537 8.91019 10.531 8.90966 10.5084 8.90912L7.8049 10.8167C7.80634 10.8514 7.8076 10.8867 7.8076 10.9219C7.8076 12.1496 6.7978 13.148 5.55645 13.148C4.46683 13.148 3.55573 12.3789 3.34935 11.3605L0.301078 10.1143C1.2449 13.4152 4.31169 15.8354 7.95232 15.8354C12.3446 15.8354 15.9051 12.3143 15.9051 7.97134C15.9051 3.6277 12.3444 0.106812 7.95232 0.106812Z" fill="#D9E3F1"/>
<path d="M5.01022 12.0396L4.03333 11.6405C4.20645 11.997 4.50595 12.2954 4.90362 12.4594C5.7633 12.8135 6.7544 12.4101 7.1127 11.5592C7.28618 11.1479 7.28726 10.6936 7.11521 10.2812C6.94352 9.86859 6.61958 9.54682 6.20303 9.37508C5.78973 9.20495 5.34695 9.21117 4.95791 9.35642L5.96699 9.76904C6.60106 10.0304 6.90092 10.7504 6.63665 11.3773C6.37292 12.0045 5.64429 12.3011 5.01022 12.0396Z" fill="#D9E3F1"/>
<path d="M12.5739 5.94419C12.5739 4.85459 11.6775 3.96802 10.5755 3.96802C9.47368 3.96802 8.57715 4.85459 8.57715 5.94419C8.57715 7.03397 9.47368 7.92019 10.5755 7.92019C11.6775 7.92002 12.5739 7.03379 12.5739 5.94419ZM9.07764 5.94082C9.07764 5.1209 9.74982 4.45637 10.5789 4.45637C11.4081 4.45637 12.0803 5.1209 12.0803 5.94082C12.0803 6.76072 11.4081 7.42526 10.5789 7.42526C9.74982 7.42526 9.07764 6.76055 9.07764 5.94082Z" fill="#D9E3F1"/>
</g>
<defs>
<clipPath id="clip0_6686_9174">
<rect width="16" height="16" fill="white"/>
</clipPath>
</defs>
</svg>
