<svg width="12" height="12" viewBox="0 0 12 12" fill="none" xmlns="http://www.w3.org/2000/svg">
<path d="M6.77995 1.94457V1.01273H7.2053C7.48493 1.01273 7.71166 0.786003 7.71166 0.506367C7.71166 0.226731 7.48497 0 7.2053 0H4.79499C4.51535 0 4.28862 0.226731 4.28862 0.506367C4.28862 0.786003 4.51535 1.01273 4.79499 1.01273H5.22034V1.94457C2.80039 2.3207 0.942383 4.41852 0.942383 6.94221C0.942383 9.73107 3.21131 12 6.00014 12C8.78897 12 11.0579 9.73103 11.0579 6.94221C11.0579 4.41852 9.1999 2.3207 6.77995 1.94457ZM6.00014 10.9873C3.76969 10.9873 1.95512 9.17265 1.95512 6.94225C1.95512 4.71184 3.76974 2.89723 6.00014 2.89723C8.23055 2.89723 10.0452 4.71184 10.0452 6.94225C10.0452 9.17265 8.23059 10.9873 6.00014 10.9873Z" fill="white"/>
<path d="M6.50639 6.73183V4.34627C6.50639 4.06664 6.27966 3.8399 6.00002 3.8399C5.72038 3.8399 5.49365 4.06664 5.49365 4.34627V7.02394C5.49365 7.10629 5.52646 7.18525 5.5848 7.24334L7.00137 8.65395C7.19958 8.85132 7.52013 8.85059 7.7175 8.65245C7.91482 8.45428 7.91413 8.13365 7.716 7.93633L6.50639 6.73183Z" fill="white"/>
</svg>
