<svg width="44" height="44" viewBox="0 0 44 44" fill="none" xmlns="http://www.w3.org/2000/svg">
<g opacity="0.07" clip-path="url(#clip0)">
<path d="M22.0005 30.154C23.2306 30.154 24.2617 31.1851 24.2617 32.4152C24.2617 33.6453 23.2306 34.6765 22.0005 34.6765C20.8156 34.6765 19.7393 33.6453 19.7936 32.4695C19.7393 31.1761 20.7614 30.154 22.0005 30.154Z" fill="white"/>
<path d="M1.07069 38.1678C-0.349358 35.7166 -0.358402 32.7951 1.0526 30.353L15.2169 5.82329C16.6188 3.35403 19.1514 1.88876 21.9915 1.88876C24.8316 1.88876 27.3642 3.36308 28.7661 5.81424L42.9485 30.3711C44.3595 32.8403 44.3504 35.7799 42.9214 38.2311C41.5104 40.6551 38.9868 42.1114 36.1648 42.1114H7.87244C5.04139 42.1114 2.49978 40.637 1.07069 38.1678ZM4.14595 36.395C4.93285 37.7517 6.32576 38.5567 7.88148 38.5567H36.1739C37.7115 38.5567 39.0954 37.7698 39.8642 36.4402C40.642 35.0925 40.6511 33.4825 39.8732 32.1258L25.6909 7.57799C24.922 6.23031 23.5472 5.43436 21.9915 5.43436C20.4448 5.43436 19.061 6.23935 18.2921 7.58704L4.11882 32.1348C3.35904 33.4554 3.36809 35.0473 4.14595 36.395Z" fill="white"/>
<path d="M22.5615 14.2802C23.6378 14.5878 24.3071 15.5646 24.3071 16.7495C24.2529 17.464 24.2076 18.1876 24.1534 18.9022C23.9996 21.6247 23.8458 24.2929 23.6921 27.0154C23.6378 27.938 22.9233 28.6073 22.0007 28.6073C21.0781 28.6073 20.3545 27.8928 20.3093 26.9612C20.3093 26.4004 20.3093 25.8848 20.255 25.315C20.1555 23.5693 20.047 21.8237 19.9475 20.078C19.8932 18.9474 19.7937 17.8168 19.7395 16.6862C19.7395 16.2792 19.7937 15.9174 19.9475 15.5556C20.4088 14.5425 21.4851 14.027 22.5615 14.2802Z" fill="white"/>
</g>
<defs>
<clipPath id="clip0">
<rect width="44" height="44" fill="white" transform="matrix(-1 0 0 1 44 0)"/>
</clipPath>
</defs>
</svg>
