<svg width="189" height="46" viewBox="0 0 189 46" fill="none" xmlns="http://www.w3.org/2000/svg">
<path d="M166.02 0.821533H23.8093C11.1662 0.821533 0.916992 10.9009 0.916992 23.3345C0.916992 35.768 11.1662 45.8474 23.8093 45.8474H166.02C178.663 45.8474 188.912 35.768 188.912 23.3345C188.912 10.9009 178.663 0.821533 166.02 0.821533Z" fill="white"/>
<path d="M142.2 23.3346C142.182 20.0036 142.897 16.7082 144.295 13.6743C145.693 10.6403 147.742 7.9395 150.301 5.757C150.587 5.51112 150.387 5.16553 150.179 5.16553H23.8093C18.9097 5.16553 14.2108 7.07962 10.7463 10.4867C7.28179 13.8938 5.33545 18.5149 5.33545 23.3332C5.33545 28.1516 7.28179 32.7726 10.7463 36.1797C14.2108 39.5868 18.9097 41.5009 23.8093 41.5009H150.098C150.304 41.5009 150.608 41.1854 150.219 40.8576C147.695 38.6628 145.676 35.9653 144.293 32.9443C142.911 29.9232 142.197 26.6475 142.2 23.3346Z" fill="#2C2C2C"/>
<path d="M94.7363 14.9298C94.7337 15.2542 94.6009 15.5644 94.3667 15.7929C94.1326 16.0214 93.8161 16.1496 93.4862 16.1496H91.568C91.2381 16.1496 90.9216 16.0214 90.6874 15.7929C90.4533 15.5644 90.3204 15.2542 90.3179 14.9298V13.4723C90.3204 13.1479 90.4533 12.8376 90.6874 12.6091C90.9216 12.3806 91.2381 12.2524 91.568 12.2524H93.489C93.8189 12.2524 94.1354 12.3806 94.3695 12.6091C94.6037 12.8376 94.7365 13.1479 94.7391 13.4723L94.7363 14.9298Z" fill="white"/>
<path d="M85.1753 13.5228C85.1753 12.8494 84.6877 12.303 83.9988 12.303H82.0069C81.6771 12.303 81.3606 12.4312 81.1264 12.6597C80.8922 12.8882 80.7594 13.1984 80.7568 13.5228V33.0661C80.7594 33.3905 80.8922 33.7007 81.1264 33.9292C81.3606 34.1577 81.6771 34.2859 82.0069 34.2859H83.928C84.2578 34.2859 84.5743 34.1577 84.8085 33.9292C85.0427 33.7007 85.1755 33.3905 85.1781 33.0661L85.1753 13.5228Z" fill="white"/>
<path d="M133.766 25.2199C133.688 22.8376 133.008 20.9904 131.725 19.6781C130.359 18.2811 128.524 17.5822 126.218 17.5813C124.777 17.5813 123.533 17.8299 122.486 18.3271C121.488 18.7851 120.605 19.4529 119.898 20.2832C119.216 21.1013 118.708 22.0463 118.406 23.0617C118.089 24.1046 117.929 25.1874 117.93 26.2758C117.93 27.7038 118.131 28.9404 118.533 29.9859C118.893 30.9696 119.48 31.858 120.248 32.5813C121.024 33.2839 121.952 33.8043 122.962 34.103C124.12 34.4467 125.325 34.6144 126.535 34.6002C127.47 34.597 128.403 34.4874 129.313 34.2737C129.621 34.2027 129.91 34.1166 130.189 34.0251C130.378 33.9712 130.564 33.906 130.745 33.8298C131.543 33.504 132.295 33.0765 132.98 32.5581C133.099 32.4855 133.203 32.3905 133.285 32.2785C133.368 32.1664 133.427 32.0395 133.459 31.9049C133.491 31.7704 133.496 31.631 133.473 31.4946C133.451 31.3582 133.401 31.2275 133.327 31.1101L132.482 29.7878C132.17 29.2947 131.51 29.2059 131.002 29.5146C131.002 29.5146 129.406 30.52 128.501 30.7905C127.907 30.9791 127.288 31.0817 126.664 31.0951C124.061 31.0951 122.653 29.8201 122.441 27.2703H132.566C132.885 27.2682 133.191 27.1429 133.417 26.9214C133.643 26.6999 133.772 26.3999 133.776 26.086V25.3565C133.775 25.3109 133.772 25.2653 133.766 25.2199ZM122.604 24.0711C122.71 23.0266 123.097 22.2325 123.764 21.6888C124.425 21.1456 125.263 20.8547 126.125 20.8692C126.627 20.8554 127.126 20.952 127.585 21.152C127.97 21.3267 128.312 21.5833 128.585 21.9033C128.845 22.2088 129.045 22.5602 129.172 22.9387C129.298 23.3022 129.362 23.6833 129.363 24.067L122.604 24.0711Z" fill="white"/>
<path d="M114.524 21.9129C114.419 21.0579 114.079 20.2473 113.539 19.5688C113.031 18.943 112.385 18.4386 111.65 18.0935C110.92 17.752 110.004 17.5813 108.904 17.5813C107.76 17.5813 106.771 17.8244 105.934 18.3107C105.176 18.7295 104.521 19.3073 104.015 20.0032V19.0047C104.014 18.6897 103.885 18.3881 103.658 18.166C103.431 17.9439 103.124 17.8196 102.804 17.8203H100.935C100.615 17.8196 100.308 17.9439 100.081 18.166C99.8534 18.3881 99.7252 18.6897 99.7241 19.0047V33.1195C99.7252 33.4413 99.8562 33.7495 100.088 33.9765C100.32 34.2034 100.634 34.3305 100.962 34.3297H102.869C103.196 34.3305 103.51 34.2034 103.742 33.9765C103.974 33.7495 104.105 33.4413 104.106 33.1195C104.106 33.1195 104.106 25.6133 104.123 25.1366C104.126 24.7059 104.185 24.2772 104.297 23.8608C104.373 23.5803 104.479 23.3087 104.615 23.0507C104.777 22.7437 104.992 22.4665 105.25 22.2311C105.776 21.7852 106.416 21.4876 107.1 21.3698C107.785 21.252 108.489 21.3183 109.139 21.5618C109.534 21.7305 109.847 22.0428 110.013 22.4333C110.203 22.8431 110.299 23.5124 110.299 24.4249V33.1249C110.299 33.2842 110.331 33.4419 110.394 33.5889C110.456 33.736 110.547 33.8695 110.662 33.9819C110.777 34.0942 110.913 34.1833 111.063 34.2439C111.212 34.3045 111.373 34.3356 111.535 34.3352H113.442C113.769 34.3359 114.083 34.2089 114.315 33.9819C114.548 33.755 114.678 33.4468 114.68 33.1249V24.3512C114.677 23.5361 114.625 22.7218 114.524 21.9129Z" fill="white"/>
<path d="M18.8258 15.1907C18.6933 14.821 18.6184 14.4337 18.6035 14.0419C18.6035 13.5037 18.7563 13.139 19.1994 12.8399C19.555 12.6008 20.2759 12.6432 21.0162 12.6254C22.2941 12.5967 22.8094 12.5598 23.2386 13.669C23.2386 13.669 26.5889 26.9478 26.6834 27.4246C26.7778 27.9013 26.8584 28.2947 26.9223 28.6034C26.9862 28.2519 27.0603 27.869 27.1445 27.4546C27.2293 27.0448 30.4545 18.1864 30.4545 18.1864C30.624 17.5252 31.056 17.1988 31.5421 16.9911C31.6945 16.9166 31.8611 16.8747 32.0311 16.8682H33.7729C34.0785 16.8682 34.3729 16.8545 34.5924 16.9679C34.861 17.0832 35.098 17.2596 35.2837 17.4826C35.4694 17.7056 35.5986 17.9688 35.6606 18.2506C35.6606 18.2506 39.0984 27.1118 39.1942 27.5393C39.29 27.9669 39.3567 28.3111 39.3998 28.5802C39.4428 28.3316 39.5053 28.0106 39.5901 27.624C39.6804 27.176 43.1529 13.669 43.1529 13.669C43.6321 12.5694 44.0599 12.6896 45.3753 12.6896C46.1156 12.6896 46.5268 12.6227 46.949 12.8672C47.4463 13.1568 47.5658 13.5761 47.5658 14.0734C47.5637 14.2605 47.5475 14.4473 47.5171 14.6321C47.4824 14.8546 47.4242 15.0729 47.3435 15.2836L42.0986 32.8257C42.035 33.0624 41.9156 33.2809 41.75 33.4636C41.5845 33.6464 41.3775 33.7882 41.1458 33.8775C40.9824 33.9446 40.8075 33.9803 40.6304 33.9827H38.2913C38.0179 33.9988 37.7445 33.9521 37.4927 33.8461C37.2622 33.7337 37.06 33.5723 36.9008 33.3736C36.7415 33.1749 36.6291 32.9439 36.5717 32.6973C36.5717 32.6973 33.1339 22.5521 33.1131 22.3718C33.0923 22.5371 29.5572 32.8011 29.5572 32.8011C29.4976 33.0443 29.3775 33.2692 29.2079 33.4556C29.0382 33.6421 28.8242 33.7842 28.5849 33.8693C28.4423 33.9256 28.29 33.9548 28.1363 33.9554H25.6361C25.4163 33.946 25.2007 33.8925 25.0027 33.7983C24.5415 33.577 24.2665 33.1918 24.097 32.6755L18.8258 15.1907Z" fill="white"/>
<path d="M55.6913 14.9298C55.6887 15.2542 55.5559 15.5644 55.3217 15.7929C55.0876 16.0214 54.7711 16.1496 54.4412 16.1496H52.5216C52.1917 16.1496 51.8752 16.0214 51.6411 15.7929C51.4069 15.5644 51.2741 15.2542 51.2715 14.9298V13.4723C51.2741 13.1479 51.4069 12.8376 51.6411 12.6091C51.8752 12.3806 52.1917 12.2524 52.5216 12.2524H54.4426C54.7725 12.2524 55.089 12.3806 55.3231 12.6091C55.5573 12.8376 55.6901 13.1479 55.6927 13.4723L55.6913 14.9298Z" fill="white"/>
<path d="M75.5565 21.9129C75.4528 21.0575 75.1121 20.2467 74.5717 19.5688C74.0634 18.943 73.4176 18.4386 72.6826 18.0935C71.9538 17.752 71.0385 17.5813 69.9365 17.5813C68.7929 17.5813 67.8035 17.8244 66.9682 18.3107C66.2094 18.7295 65.5536 19.3073 65.0472 20.0032V19.0047C65.0469 18.8487 65.0152 18.6943 64.9541 18.5503C64.8931 18.4063 64.8037 18.2756 64.6912 18.1656C64.5787 18.0556 64.4453 17.9685 64.2986 17.9093C64.1518 17.85 63.9946 17.8198 63.836 17.8203H61.972C61.8133 17.8198 61.6561 17.85 61.5094 17.9093C61.3627 17.9685 61.2292 18.0556 61.1167 18.1656C61.0042 18.2756 60.9149 18.4063 60.8538 18.5503C60.7927 18.6943 60.7611 18.8487 60.7607 19.0047V33.1195C60.7618 33.4413 60.8928 33.7495 61.1249 33.9765C61.3569 34.2034 61.6711 34.3305 61.9983 34.3297H63.9041C64.0662 34.3303 64.2269 34.2994 64.3769 34.2389C64.527 34.1783 64.6634 34.0893 64.7785 33.977C64.8935 33.8646 64.9849 33.731 65.0475 33.5839C65.11 33.4368 65.1425 33.2789 65.1431 33.1195V26.3496C65.1431 26.0177 65.1431 25.6133 65.1583 25.1366C65.1615 24.7058 65.2203 24.277 65.3334 23.8608C65.4098 23.5813 65.5174 23.311 65.6542 23.0548C65.8168 22.7481 66.0315 22.4709 66.289 22.2352C66.8159 21.7896 67.4554 21.4921 68.14 21.3743C68.8245 21.2565 69.5287 21.3227 70.1782 21.5659C70.5724 21.7349 70.8849 22.0471 71.0505 22.4374C71.2408 22.8472 71.3367 23.5165 71.3367 24.429V33.129C71.3378 33.4509 71.4687 33.7591 71.7008 33.986C71.9328 34.213 72.247 34.34 72.5743 34.3393H74.48C74.8072 34.34 75.1214 34.213 75.3535 33.986C75.5855 33.7591 75.7165 33.4509 75.7176 33.129V24.3512C75.7135 23.536 75.6597 22.7217 75.5565 21.9129Z" fill="white"/>
<path d="M54.4429 17.8896H52.5219C52.1918 17.8896 51.8751 18.018 51.6409 18.2468C51.4067 18.4756 51.274 18.7862 51.2718 19.1108L51.2329 33.0549C51.2329 33.2171 51.2655 33.3776 51.3289 33.5273C51.3922 33.677 51.485 33.8129 51.602 33.9271C51.719 34.0414 51.8578 34.1318 52.0104 34.1931C52.163 34.2544 52.3265 34.2854 52.4914 34.2843H54.436C54.6008 34.2854 54.7643 34.2544 54.9169 34.1931C55.0696 34.1318 55.2084 34.0414 55.3253 33.9271C55.4423 33.8129 55.5351 33.677 55.5985 33.5273C55.6618 33.3776 55.6944 33.2171 55.6944 33.0549V19.1108C55.6922 18.786 55.5593 18.4752 55.3248 18.2463C55.0903 18.0175 54.7733 17.8893 54.4429 17.8896Z" fill="white"/>
<path d="M93.5097 17.8896H91.5873C91.2572 17.8896 90.9405 18.018 90.7063 18.2468C90.4721 18.4756 90.3394 18.7862 90.3372 19.1108L90.2983 33.0549C90.2983 33.2171 90.3309 33.3776 90.3943 33.5273C90.4576 33.677 90.5505 33.8129 90.6674 33.9271C90.7844 34.0414 90.9232 34.1318 91.0758 34.1931C91.2285 34.2544 91.3919 34.2854 91.5568 34.2843H93.5014C93.6663 34.2854 93.8297 34.2544 93.9824 34.1931C94.135 34.1318 94.2738 34.0414 94.3908 33.9271C94.5077 33.8129 94.6005 33.677 94.6639 33.5273C94.7272 33.3776 94.7598 33.2171 94.7598 33.0549V19.1108C94.7576 18.7862 94.625 18.4756 94.3908 18.2468C94.1566 18.018 93.8398 17.8896 93.5097 17.8896Z" fill="white"/>
<path d="M184.496 23.3347C184.496 26.9279 183.413 30.4405 181.383 33.4281C179.353 36.4158 176.468 38.7444 173.092 40.1195C169.717 41.4945 166.002 41.8543 162.419 41.1533C158.835 40.4523 155.543 38.722 152.96 36.1812C150.376 33.6404 148.617 30.4032 147.904 26.879C147.191 23.3549 147.557 19.7019 148.955 16.3822C150.353 13.0625 152.721 10.2251 155.759 8.2288C158.797 6.23251 162.369 5.16699 166.023 5.16699C170.922 5.16699 175.621 7.08109 179.086 10.4882C182.55 13.8953 184.496 18.5163 184.496 23.3347Z" fill="#FF6A13"/>
</svg>
